<mxfile host="app.diagrams.net" modified="2022-08-12T11:11:53.301Z" agent="5.0 (Windows NT 10.0; Win64; x64) AppleWebKit/537.36 (KHTML, like Gecko) Chrome/104.0.0.0 Safari/537.36" etag="6BQ-QfHcQJKugX6CgVxp" version="18.0.3" type="github">
  <diagram id="vduSAq1UqD18SvswGxO_" name="Page-1">
    <mxGraphModel dx="866" dy="1452" grid="1" gridSize="10" guides="1" tooltips="1" connect="1" arrows="1" fold="1" page="1" pageScale="1" pageWidth="827" pageHeight="1169" math="0" shadow="0">
      <root>
        <mxCell id="0" />
        <mxCell id="1" parent="0" />
        <mxCell id="d1TsrUusoKjAXNjvLQ9p-1" value="(0|3)" style="whiteSpace=wrap;html=1;aspect=fixed;fontSize=10;dashed=1;fontStyle=2;strokeColor=#B3B3B3;fontColor=#E6E6E6;" vertex="1" parent="1">
          <mxGeometry x="1941" y="131.57" width="38" height="38" as="geometry" />
        </mxCell>
        <mxCell id="d1TsrUusoKjAXNjvLQ9p-2" value="(1|3)" style="whiteSpace=wrap;html=1;aspect=fixed;fontSize=10;dashed=1;fontStyle=2;strokeColor=#B3B3B3;fontColor=#E6E6E6;" vertex="1" parent="1">
          <mxGeometry x="1979" y="131.57" width="38" height="38" as="geometry" />
        </mxCell>
        <mxCell id="d1TsrUusoKjAXNjvLQ9p-3" value="(0|2)" style="whiteSpace=wrap;html=1;aspect=fixed;fontSize=10;dashed=1;fontStyle=2;strokeColor=#B3B3B3;fontColor=#E6E6E6;" vertex="1" parent="1">
          <mxGeometry x="1941" y="169.57" width="38" height="38" as="geometry" />
        </mxCell>
        <mxCell id="d1TsrUusoKjAXNjvLQ9p-4" value="&lt;font style=&quot;font-size: 12px;&quot;&gt;(0|0)&lt;/font&gt;" style="whiteSpace=wrap;html=1;aspect=fixed;fontSize=12;horizontal=1;verticalAlign=middle;fillColor=#fff2cc;strokeColor=#d6b656;gradientColor=#ffd966;" vertex="1" parent="1">
          <mxGeometry x="1731" y="245.57" width="38" height="38" as="geometry" />
        </mxCell>
        <mxCell id="d1TsrUusoKjAXNjvLQ9p-5" value="&lt;span style=&quot;font-size: 12px;&quot;&gt;(1|0)&lt;/span&gt;" style="whiteSpace=wrap;html=1;aspect=fixed;fontSize=12;fillColor=#fff2cc;strokeColor=#d6b656;gradientColor=#ffd966;" vertex="1" parent="1">
          <mxGeometry x="1769" y="245.57" width="38" height="38" as="geometry" />
        </mxCell>
        <mxCell id="d1TsrUusoKjAXNjvLQ9p-6" value="TileTemplates Coordinate System" style="text;html=1;strokeColor=none;fillColor=none;align=left;verticalAlign=middle;whiteSpace=wrap;rounded=0;fontSize=16;" vertex="1" parent="1">
          <mxGeometry x="1731" y="77.57" width="264" height="30" as="geometry" />
        </mxCell>
        <mxCell id="d1TsrUusoKjAXNjvLQ9p-7" value="row" style="endArrow=classic;html=1;rounded=0;fontSize=12;elbow=vertical;jumpStyle=gap;jumpSize=15;" edge="1" parent="1">
          <mxGeometry width="50" height="50" relative="1" as="geometry">
            <mxPoint x="1701" y="317.57000000000016" as="sourcePoint" />
            <mxPoint x="1701" y="67.57000000000016" as="targetPoint" />
          </mxGeometry>
        </mxCell>
        <mxCell id="d1TsrUusoKjAXNjvLQ9p-8" value="column" style="endArrow=classic;html=1;rounded=0;fontSize=12;elbow=vertical;jumpStyle=gap;jumpSize=15;" edge="1" parent="1">
          <mxGeometry width="50" height="50" relative="1" as="geometry">
            <mxPoint x="1701" y="317.57000000000016" as="sourcePoint" />
            <mxPoint x="2141" y="317.57000000000016" as="targetPoint" />
          </mxGeometry>
        </mxCell>
        <mxCell id="d1TsrUusoKjAXNjvLQ9p-9" value="(1|2)" style="whiteSpace=wrap;html=1;aspect=fixed;fontSize=10;dashed=1;fontStyle=2;strokeColor=#B3B3B3;fontColor=#E6E6E6;" vertex="1" parent="1">
          <mxGeometry x="1769" y="169.57" width="38" height="38" as="geometry" />
        </mxCell>
        <mxCell id="d1TsrUusoKjAXNjvLQ9p-10" value="(1|1)" style="whiteSpace=wrap;html=1;aspect=fixed;fontSize=10;dashed=1;fontStyle=2;strokeColor=#B3B3B3;fontColor=#E6E6E6;" vertex="1" parent="1">
          <mxGeometry x="1769" y="207.57" width="38" height="38" as="geometry" />
        </mxCell>
        <mxCell id="d1TsrUusoKjAXNjvLQ9p-11" value="(0|3)" style="whiteSpace=wrap;html=1;aspect=fixed;fontSize=10;dashed=1;fontStyle=2;strokeColor=#B3B3B3;fontColor=#E6E6E6;" vertex="1" parent="1">
          <mxGeometry x="1731" y="131.57" width="38" height="38" as="geometry" />
        </mxCell>
        <mxCell id="d1TsrUusoKjAXNjvLQ9p-12" value="(1|3)" style="whiteSpace=wrap;html=1;aspect=fixed;fontSize=10;dashed=1;fontStyle=2;strokeColor=#B3B3B3;fontColor=#E6E6E6;" vertex="1" parent="1">
          <mxGeometry x="1769" y="131.57" width="38" height="38" as="geometry" />
        </mxCell>
        <mxCell id="d1TsrUusoKjAXNjvLQ9p-13" value="(0|2)" style="whiteSpace=wrap;html=1;aspect=fixed;fontSize=12;" vertex="1" parent="1">
          <mxGeometry x="1731" y="169.57" width="38" height="38" as="geometry" />
        </mxCell>
        <mxCell id="d1TsrUusoKjAXNjvLQ9p-14" value="(0|1)" style="whiteSpace=wrap;html=1;aspect=fixed;fontSize=12;fillColor=#fff2cc;strokeColor=#d6b656;gradientColor=#ffd966;" vertex="1" parent="1">
          <mxGeometry x="1731" y="207.57" width="38" height="38" as="geometry" />
        </mxCell>
        <mxCell id="d1TsrUusoKjAXNjvLQ9p-15" value="&lt;font style=&quot;font-size: 12px;&quot;&gt;(0|0)&lt;/font&gt;" style="whiteSpace=wrap;html=1;aspect=fixed;fontSize=12;horizontal=1;verticalAlign=middle;fillColor=#d5e8d4;strokeColor=#82b366;gradientColor=#97d077;" vertex="1" parent="1">
          <mxGeometry x="1831" y="245.57" width="38" height="38" as="geometry" />
        </mxCell>
        <mxCell id="d1TsrUusoKjAXNjvLQ9p-16" value="&lt;span style=&quot;font-size: 12px;&quot;&gt;(1|0)&lt;/span&gt;" style="whiteSpace=wrap;html=1;aspect=fixed;fontSize=12;fillColor=#d5e8d4;strokeColor=#82b366;gradientColor=#97d077;" vertex="1" parent="1">
          <mxGeometry x="1869" y="245.57" width="38" height="38" as="geometry" />
        </mxCell>
        <mxCell id="d1TsrUusoKjAXNjvLQ9p-17" value="(1|2)" style="whiteSpace=wrap;html=1;aspect=fixed;fontSize=10;dashed=1;fontStyle=2;strokeColor=#B3B3B3;fontColor=#E6E6E6;" vertex="1" parent="1">
          <mxGeometry x="1869" y="169.57" width="38" height="38" as="geometry" />
        </mxCell>
        <mxCell id="d1TsrUusoKjAXNjvLQ9p-18" value="(0|3)" style="whiteSpace=wrap;html=1;aspect=fixed;fontSize=10;dashed=1;fontStyle=2;strokeColor=#B3B3B3;fontColor=#E6E6E6;" vertex="1" parent="1">
          <mxGeometry x="1831" y="131.57" width="38" height="38" as="geometry" />
        </mxCell>
        <mxCell id="d1TsrUusoKjAXNjvLQ9p-19" value="(1|3)" style="whiteSpace=wrap;html=1;aspect=fixed;fontSize=10;dashed=1;fontStyle=2;strokeColor=#B3B3B3;fontColor=#E6E6E6;" vertex="1" parent="1">
          <mxGeometry x="1869" y="131.57" width="38" height="38" as="geometry" />
        </mxCell>
        <mxCell id="d1TsrUusoKjAXNjvLQ9p-20" value="(0|2)" style="whiteSpace=wrap;html=1;aspect=fixed;fontSize=10;dashed=1;fontStyle=2;strokeColor=#B3B3B3;fontColor=#E6E6E6;" vertex="1" parent="1">
          <mxGeometry x="1831" y="169.57" width="38" height="38" as="geometry" />
        </mxCell>
        <mxCell id="d1TsrUusoKjAXNjvLQ9p-21" value="&lt;span style=&quot;font-size: 12px;&quot;&gt;(1|1)&lt;/span&gt;" style="whiteSpace=wrap;html=1;aspect=fixed;fontSize=12;fillColor=#d5e8d4;strokeColor=#82b366;gradientColor=#97d077;" vertex="1" parent="1">
          <mxGeometry x="1869" y="207.57" width="38" height="38" as="geometry" />
        </mxCell>
        <mxCell id="d1TsrUusoKjAXNjvLQ9p-22" value="(0|1)" style="whiteSpace=wrap;html=1;aspect=fixed;fontSize=12;fillColor=#d5e8d4;strokeColor=#82b366;gradientColor=#97d077;" vertex="1" parent="1">
          <mxGeometry x="1831" y="207.57" width="38" height="38" as="geometry" />
        </mxCell>
        <mxCell id="d1TsrUusoKjAXNjvLQ9p-23" value="(1|0)" style="whiteSpace=wrap;html=1;aspect=fixed;fontSize=10;dashed=1;fontStyle=2;strokeColor=#B3B3B3;fontColor=#E6E6E6;" vertex="1" parent="1">
          <mxGeometry x="1979" y="245.57" width="38" height="38" as="geometry" />
        </mxCell>
        <mxCell id="d1TsrUusoKjAXNjvLQ9p-24" value="(0|2)" style="whiteSpace=wrap;html=1;aspect=fixed;fontSize=12;fillColor=#fff2cc;strokeColor=#d6b656;gradientColor=#ffd966;" vertex="1" parent="1">
          <mxGeometry x="1731" y="169.57" width="38" height="38" as="geometry" />
        </mxCell>
        <mxCell id="d1TsrUusoKjAXNjvLQ9p-25" value="&lt;font style=&quot;font-size: 12px;&quot;&gt;(0|0)&lt;/font&gt;" style="whiteSpace=wrap;html=1;aspect=fixed;fontSize=12;horizontal=1;verticalAlign=middle;fillColor=#e6d0de;strokeColor=#996185;gradientColor=#d5739d;" vertex="1" parent="1">
          <mxGeometry x="1941" y="245.57" width="38" height="38" as="geometry" />
        </mxCell>
        <mxCell id="d1TsrUusoKjAXNjvLQ9p-26" value="&lt;span style=&quot;font-size: 12px;&quot;&gt;(1|1)&lt;/span&gt;" style="whiteSpace=wrap;html=1;aspect=fixed;fontSize=12;fillColor=#e6d0de;strokeColor=#996185;gradientColor=#d5739d;" vertex="1" parent="1">
          <mxGeometry x="1979" y="207.57" width="38" height="38" as="geometry" />
        </mxCell>
        <mxCell id="d1TsrUusoKjAXNjvLQ9p-27" value="(0|1)" style="whiteSpace=wrap;html=1;aspect=fixed;fontSize=12;fillColor=#e6d0de;strokeColor=#996185;gradientColor=#d5739d;" vertex="1" parent="1">
          <mxGeometry x="1941" y="207.57" width="38" height="38" as="geometry" />
        </mxCell>
        <mxCell id="d1TsrUusoKjAXNjvLQ9p-28" value="&lt;span style=&quot;font-size: 12px;&quot;&gt;(1|2)&lt;/span&gt;" style="whiteSpace=wrap;html=1;aspect=fixed;fontSize=12;fillColor=#e6d0de;strokeColor=#996185;gradientColor=#d5739d;" vertex="1" parent="1">
          <mxGeometry x="1979" y="169.57" width="38" height="38" as="geometry" />
        </mxCell>
        <mxCell id="d1TsrUusoKjAXNjvLQ9p-29" value="(1|2)" style="whiteSpace=wrap;html=1;aspect=fixed;fontSize=10;dashed=1;fontStyle=2;strokeColor=#B3B3B3;fontColor=#E6E6E6;" vertex="1" parent="1">
          <mxGeometry x="2089" y="171" width="38" height="38" as="geometry" />
        </mxCell>
        <mxCell id="d1TsrUusoKjAXNjvLQ9p-30" value="(1|3)" style="whiteSpace=wrap;html=1;aspect=fixed;fontSize=10;dashed=1;fontStyle=2;strokeColor=#B3B3B3;fontColor=#E6E6E6;" vertex="1" parent="1">
          <mxGeometry x="2089" y="133" width="38" height="38" as="geometry" />
        </mxCell>
        <mxCell id="d1TsrUusoKjAXNjvLQ9p-31" value="(1|0)" style="whiteSpace=wrap;html=1;aspect=fixed;fontSize=10;dashed=1;fontStyle=2;strokeColor=#B3B3B3;fontColor=#E6E6E6;" vertex="1" parent="1">
          <mxGeometry x="2089" y="247" width="38" height="38" as="geometry" />
        </mxCell>
        <mxCell id="d1TsrUusoKjAXNjvLQ9p-32" value="(1|1)" style="whiteSpace=wrap;html=1;aspect=fixed;fontSize=10;dashed=1;fontStyle=2;strokeColor=#B3B3B3;fontColor=#E6E6E6;" vertex="1" parent="1">
          <mxGeometry x="2089" y="209" width="38" height="38" as="geometry" />
        </mxCell>
        <mxCell id="d1TsrUusoKjAXNjvLQ9p-33" value="&lt;font style=&quot;font-size: 12px;&quot;&gt;(0|0)&lt;/font&gt;" style="whiteSpace=wrap;html=1;aspect=fixed;fontSize=12;horizontal=1;verticalAlign=middle;fillColor=#dae8fc;strokeColor=#6c8ebf;gradientColor=#7ea6e0;" vertex="1" parent="1">
          <mxGeometry x="2051" y="247" width="38" height="38" as="geometry" />
        </mxCell>
        <mxCell id="d1TsrUusoKjAXNjvLQ9p-34" value="(0|1)" style="whiteSpace=wrap;html=1;aspect=fixed;fontSize=12;fillColor=#dae8fc;strokeColor=#6c8ebf;gradientColor=#7ea6e0;" vertex="1" parent="1">
          <mxGeometry x="2051" y="209" width="38" height="38" as="geometry" />
        </mxCell>
        <mxCell id="d1TsrUusoKjAXNjvLQ9p-35" value="(0|2)" style="whiteSpace=wrap;html=1;aspect=fixed;fontSize=12;fillColor=#dae8fc;strokeColor=#6c8ebf;gradientColor=#7ea6e0;" vertex="1" parent="1">
          <mxGeometry x="2051" y="171" width="38" height="38" as="geometry" />
        </mxCell>
        <mxCell id="d1TsrUusoKjAXNjvLQ9p-36" value="(0|3)" style="whiteSpace=wrap;html=1;aspect=fixed;fontSize=12;fillColor=#dae8fc;strokeColor=#6c8ebf;gradientColor=#7ea6e0;" vertex="1" parent="1">
          <mxGeometry x="2051" y="133" width="38" height="38" as="geometry" />
        </mxCell>
        <mxCell id="d1TsrUusoKjAXNjvLQ9p-37" value="&lt;font style=&quot;&quot;&gt;(0|0)&lt;br&gt;&lt;font style=&quot;font-size: 6px;&quot;&gt;anchor&lt;/font&gt;&lt;br&gt;&lt;/font&gt;" style="whiteSpace=wrap;html=1;aspect=fixed;fontSize=12;horizontal=1;verticalAlign=middle;fillColor=#f8cecc;strokeColor=#b85450;gradientColor=#ea6b66;" vertex="1" parent="1">
          <mxGeometry x="1731" y="518.5699999999999" width="38" height="38" as="geometry" />
        </mxCell>
        <mxCell id="d1TsrUusoKjAXNjvLQ9p-38" value="&lt;span style=&quot;font-size: 12px;&quot;&gt;(1|0)&lt;/span&gt;" style="whiteSpace=wrap;html=1;aspect=fixed;fontSize=12;fillColor=#fff2cc;strokeColor=#d6b656;gradientColor=#ffd966;" vertex="1" parent="1">
          <mxGeometry x="1769" y="518.5699999999999" width="38" height="38" as="geometry" />
        </mxCell>
        <mxCell id="d1TsrUusoKjAXNjvLQ9p-39" value="Rotation Example" style="text;html=1;strokeColor=none;fillColor=none;align=left;verticalAlign=middle;whiteSpace=wrap;rounded=0;fontSize=16;" vertex="1" parent="1">
          <mxGeometry x="1728" y="347.57" width="264" height="30" as="geometry" />
        </mxCell>
        <mxCell id="d1TsrUusoKjAXNjvLQ9p-40" value="row" style="endArrow=classic;html=1;rounded=0;fontSize=12;elbow=vertical;jumpStyle=gap;jumpSize=15;" edge="1" parent="1">
          <mxGeometry width="50" height="50" relative="1" as="geometry">
            <mxPoint x="1701" y="660.5700000000002" as="sourcePoint" />
            <mxPoint x="1701" y="340.57000000000016" as="targetPoint" />
          </mxGeometry>
        </mxCell>
        <mxCell id="d1TsrUusoKjAXNjvLQ9p-41" value="column" style="endArrow=classic;html=1;rounded=0;fontSize=12;elbow=vertical;jumpStyle=gap;jumpSize=15;" edge="1" parent="1">
          <mxGeometry width="50" height="50" relative="1" as="geometry">
            <mxPoint x="1701" y="660.5700000000002" as="sourcePoint" />
            <mxPoint x="2361" y="660.5700000000002" as="targetPoint" />
          </mxGeometry>
        </mxCell>
        <mxCell id="d1TsrUusoKjAXNjvLQ9p-42" value="(1|2)" style="whiteSpace=wrap;html=1;aspect=fixed;fontSize=10;dashed=1;fontStyle=2;strokeColor=#B3B3B3;fontColor=#E6E6E6;" vertex="1" parent="1">
          <mxGeometry x="1769" y="442.57" width="38" height="38" as="geometry" />
        </mxCell>
        <mxCell id="d1TsrUusoKjAXNjvLQ9p-43" value="(1|1)" style="whiteSpace=wrap;html=1;aspect=fixed;fontSize=10;dashed=1;fontStyle=2;strokeColor=#B3B3B3;fontColor=#E6E6E6;" vertex="1" parent="1">
          <mxGeometry x="1769" y="480.57" width="38" height="38" as="geometry" />
        </mxCell>
        <mxCell id="d1TsrUusoKjAXNjvLQ9p-44" value="(0|3)" style="whiteSpace=wrap;html=1;aspect=fixed;fontSize=10;dashed=1;fontStyle=2;strokeColor=#B3B3B3;fontColor=#E6E6E6;" vertex="1" parent="1">
          <mxGeometry x="1731" y="404.57" width="38" height="38" as="geometry" />
        </mxCell>
        <mxCell id="d1TsrUusoKjAXNjvLQ9p-45" value="(1|3)" style="whiteSpace=wrap;html=1;aspect=fixed;fontSize=10;dashed=1;fontStyle=2;strokeColor=#B3B3B3;fontColor=#E6E6E6;" vertex="1" parent="1">
          <mxGeometry x="1769" y="404.57" width="38" height="38" as="geometry" />
        </mxCell>
        <mxCell id="d1TsrUusoKjAXNjvLQ9p-46" value="(0|2)" style="whiteSpace=wrap;html=1;aspect=fixed;fontSize=12;" vertex="1" parent="1">
          <mxGeometry x="1731" y="442.57" width="38" height="38" as="geometry" />
        </mxCell>
        <mxCell id="d1TsrUusoKjAXNjvLQ9p-47" value="(0|1)" style="whiteSpace=wrap;html=1;aspect=fixed;fontSize=12;fillColor=#fff2cc;strokeColor=#d6b656;gradientColor=#ffd966;" vertex="1" parent="1">
          <mxGeometry x="1731" y="480.57" width="38" height="38" as="geometry" />
        </mxCell>
        <mxCell id="d1TsrUusoKjAXNjvLQ9p-48" value="(0|2)" style="whiteSpace=wrap;html=1;aspect=fixed;fontSize=12;fillColor=#fff2cc;strokeColor=#d6b656;gradientColor=#ffd966;" vertex="1" parent="1">
          <mxGeometry x="1731" y="442.57" width="38" height="38" as="geometry" />
        </mxCell>
        <mxCell id="d1TsrUusoKjAXNjvLQ9p-49" value="0°" style="text;html=1;strokeColor=none;fillColor=none;align=center;verticalAlign=middle;whiteSpace=wrap;rounded=0;fontSize=12;" vertex="1" parent="1">
          <mxGeometry x="1751" y="380.57" width="40" height="20" as="geometry" />
        </mxCell>
        <mxCell id="d1TsrUusoKjAXNjvLQ9p-50" value="(1|2)" style="whiteSpace=wrap;html=1;aspect=fixed;fontSize=10;dashed=1;fontStyle=2;strokeColor=#B3B3B3;fontColor=#E6E6E6;" vertex="1" parent="1">
          <mxGeometry x="1879" y="441.57" width="38" height="38" as="geometry" />
        </mxCell>
        <mxCell id="d1TsrUusoKjAXNjvLQ9p-51" value="(1|1)" style="whiteSpace=wrap;html=1;aspect=fixed;fontSize=10;dashed=1;fontStyle=2;strokeColor=#B3B3B3;fontColor=#E6E6E6;" vertex="1" parent="1">
          <mxGeometry x="1879" y="479.57" width="38" height="38" as="geometry" />
        </mxCell>
        <mxCell id="d1TsrUusoKjAXNjvLQ9p-52" value="(0|3)" style="whiteSpace=wrap;html=1;aspect=fixed;fontSize=10;dashed=1;fontStyle=2;strokeColor=#B3B3B3;fontColor=#E6E6E6;" vertex="1" parent="1">
          <mxGeometry x="1841" y="403.57" width="38" height="38" as="geometry" />
        </mxCell>
        <mxCell id="d1TsrUusoKjAXNjvLQ9p-53" value="(1|3)" style="whiteSpace=wrap;html=1;aspect=fixed;fontSize=10;dashed=1;fontStyle=2;strokeColor=#B3B3B3;fontColor=#E6E6E6;" vertex="1" parent="1">
          <mxGeometry x="1879" y="403.57" width="38" height="38" as="geometry" />
        </mxCell>
        <mxCell id="d1TsrUusoKjAXNjvLQ9p-54" value="90°" style="text;html=1;strokeColor=none;fillColor=none;align=center;verticalAlign=middle;whiteSpace=wrap;rounded=0;fontSize=12;" vertex="1" parent="1">
          <mxGeometry x="1851" y="380.57" width="100" height="20" as="geometry" />
        </mxCell>
        <mxCell id="d1TsrUusoKjAXNjvLQ9p-55" value="(0|2)" style="whiteSpace=wrap;html=1;aspect=fixed;fontSize=10;dashed=1;fontStyle=2;strokeColor=#B3B3B3;fontColor=#E6E6E6;" vertex="1" parent="1">
          <mxGeometry x="1841" y="441.57" width="38" height="38" as="geometry" />
        </mxCell>
        <mxCell id="d1TsrUusoKjAXNjvLQ9p-56" value="(0|1)" style="whiteSpace=wrap;html=1;aspect=fixed;fontSize=10;dashed=1;fontStyle=2;strokeColor=#B3B3B3;fontColor=#E6E6E6;" vertex="1" parent="1">
          <mxGeometry x="1841" y="479.57" width="38" height="38" as="geometry" />
        </mxCell>
        <mxCell id="d1TsrUusoKjAXNjvLQ9p-57" value="(1|-1)" style="whiteSpace=wrap;html=1;aspect=fixed;fontSize=10;dashed=1;fontStyle=2;strokeColor=#B3B3B3;fontColor=#E6E6E6;" vertex="1" parent="1">
          <mxGeometry x="1879" y="555.57" width="38" height="38" as="geometry" />
        </mxCell>
        <mxCell id="d1TsrUusoKjAXNjvLQ9p-58" value="(1|-2)" style="whiteSpace=wrap;html=1;aspect=fixed;fontSize=10;dashed=1;fontStyle=2;strokeColor=#B3B3B3;fontColor=#E6E6E6;" vertex="1" parent="1">
          <mxGeometry x="1917" y="555.57" width="38" height="38" as="geometry" />
        </mxCell>
        <mxCell id="d1TsrUusoKjAXNjvLQ9p-59" value="(2|2)" style="whiteSpace=wrap;html=1;aspect=fixed;fontSize=10;dashed=1;fontStyle=2;strokeColor=#B3B3B3;fontColor=#E6E6E6;" vertex="1" parent="1">
          <mxGeometry x="1917" y="441.57" width="38" height="38" as="geometry" />
        </mxCell>
        <mxCell id="d1TsrUusoKjAXNjvLQ9p-60" value="(2|1)" style="whiteSpace=wrap;html=1;aspect=fixed;fontSize=10;dashed=1;fontStyle=2;strokeColor=#B3B3B3;fontColor=#E6E6E6;" vertex="1" parent="1">
          <mxGeometry x="1917" y="479.57" width="38" height="38" as="geometry" />
        </mxCell>
        <mxCell id="d1TsrUusoKjAXNjvLQ9p-61" value="(2|3)" style="whiteSpace=wrap;html=1;aspect=fixed;fontSize=10;dashed=1;fontStyle=2;strokeColor=#B3B3B3;fontColor=#E6E6E6;" vertex="1" parent="1">
          <mxGeometry x="1917" y="403.57" width="38" height="38" as="geometry" />
        </mxCell>
        <mxCell id="d1TsrUusoKjAXNjvLQ9p-62" value="&lt;font style=&quot;&quot;&gt;(0|0)&lt;br&gt;&lt;font style=&quot;font-size: 6px;&quot;&gt;anchor&lt;/font&gt;&lt;br&gt;&lt;/font&gt;" style="whiteSpace=wrap;html=1;aspect=fixed;fontSize=12;horizontal=1;verticalAlign=middle;fillColor=#f8cecc;strokeColor=#b85450;gradientColor=#ea6b66;" vertex="1" parent="1">
          <mxGeometry x="2020" y="516.5699999999999" width="38" height="38" as="geometry" />
        </mxCell>
        <mxCell id="d1TsrUusoKjAXNjvLQ9p-63" value="&lt;span style=&quot;font-size: 12px;&quot;&gt;(0|-1)&lt;/span&gt;" style="whiteSpace=wrap;html=1;aspect=fixed;fontSize=12;fillColor=#fff2cc;strokeColor=#d6b656;gradientColor=#ffd966;" vertex="1" parent="1">
          <mxGeometry x="2020" y="554.57" width="38" height="38" as="geometry" />
        </mxCell>
        <mxCell id="d1TsrUusoKjAXNjvLQ9p-64" value="(1|2)" style="whiteSpace=wrap;html=1;aspect=fixed;fontSize=10;dashed=1;fontStyle=2;strokeColor=#B3B3B3;fontColor=#E6E6E6;" vertex="1" parent="1">
          <mxGeometry x="2058" y="440.57" width="38" height="38" as="geometry" />
        </mxCell>
        <mxCell id="d1TsrUusoKjAXNjvLQ9p-65" value="(1|1)" style="whiteSpace=wrap;html=1;aspect=fixed;fontSize=10;dashed=1;fontStyle=2;strokeColor=#B3B3B3;fontColor=#E6E6E6;" vertex="1" parent="1">
          <mxGeometry x="2058" y="478.57" width="38" height="38" as="geometry" />
        </mxCell>
        <mxCell id="d1TsrUusoKjAXNjvLQ9p-66" value="(0|3)" style="whiteSpace=wrap;html=1;aspect=fixed;fontSize=10;dashed=1;fontStyle=2;strokeColor=#B3B3B3;fontColor=#E6E6E6;" vertex="1" parent="1">
          <mxGeometry x="2020" y="402.57" width="38" height="38" as="geometry" />
        </mxCell>
        <mxCell id="d1TsrUusoKjAXNjvLQ9p-67" value="(1|3)" style="whiteSpace=wrap;html=1;aspect=fixed;fontSize=10;dashed=1;fontStyle=2;strokeColor=#B3B3B3;fontColor=#E6E6E6;" vertex="1" parent="1">
          <mxGeometry x="2058" y="402.57" width="38" height="38" as="geometry" />
        </mxCell>
        <mxCell id="d1TsrUusoKjAXNjvLQ9p-68" value="(0|-2)" style="whiteSpace=wrap;html=1;aspect=fixed;fontSize=12;fillColor=#fff2cc;strokeColor=#d6b656;gradientColor=#ffd966;" vertex="1" parent="1">
          <mxGeometry x="2020" y="591.57" width="38" height="38" as="geometry" />
        </mxCell>
        <mxCell id="d1TsrUusoKjAXNjvLQ9p-69" value="(0|2)" style="whiteSpace=wrap;html=1;aspect=fixed;fontSize=10;dashed=1;fontStyle=2;strokeColor=#B3B3B3;fontColor=#E6E6E6;" vertex="1" parent="1">
          <mxGeometry x="2020" y="440.57" width="38" height="38" as="geometry" />
        </mxCell>
        <mxCell id="d1TsrUusoKjAXNjvLQ9p-70" value="(0|1)" style="whiteSpace=wrap;html=1;aspect=fixed;fontSize=10;dashed=1;fontStyle=2;strokeColor=#B3B3B3;fontColor=#E6E6E6;" vertex="1" parent="1">
          <mxGeometry x="2020" y="478.57" width="38" height="38" as="geometry" />
        </mxCell>
        <mxCell id="d1TsrUusoKjAXNjvLQ9p-71" value="(1|-1)" style="whiteSpace=wrap;html=1;aspect=fixed;fontSize=10;dashed=1;fontStyle=2;strokeColor=#B3B3B3;fontColor=#E6E6E6;" vertex="1" parent="1">
          <mxGeometry x="2058" y="554.57" width="38" height="38" as="geometry" />
        </mxCell>
        <mxCell id="d1TsrUusoKjAXNjvLQ9p-72" value="(2|-1)" style="whiteSpace=wrap;html=1;aspect=fixed;fontSize=10;dashed=1;fontStyle=2;strokeColor=#B3B3B3;fontColor=#E6E6E6;" vertex="1" parent="1">
          <mxGeometry x="2096" y="554.57" width="38" height="38" as="geometry" />
        </mxCell>
        <mxCell id="d1TsrUusoKjAXNjvLQ9p-73" value="(2|2)" style="whiteSpace=wrap;html=1;aspect=fixed;fontSize=10;dashed=1;fontStyle=2;strokeColor=#B3B3B3;fontColor=#E6E6E6;" vertex="1" parent="1">
          <mxGeometry x="2096" y="440.57" width="38" height="38" as="geometry" />
        </mxCell>
        <mxCell id="d1TsrUusoKjAXNjvLQ9p-74" value="(2|1)" style="whiteSpace=wrap;html=1;aspect=fixed;fontSize=10;dashed=1;fontStyle=2;strokeColor=#B3B3B3;fontColor=#E6E6E6;" vertex="1" parent="1">
          <mxGeometry x="2096" y="478.57" width="38" height="38" as="geometry" />
        </mxCell>
        <mxCell id="d1TsrUusoKjAXNjvLQ9p-75" value="(2|3)" style="whiteSpace=wrap;html=1;aspect=fixed;fontSize=10;dashed=1;fontStyle=2;strokeColor=#B3B3B3;fontColor=#E6E6E6;" vertex="1" parent="1">
          <mxGeometry x="2096" y="402.57" width="38" height="38" as="geometry" />
        </mxCell>
        <mxCell id="d1TsrUusoKjAXNjvLQ9p-76" value="180°" style="text;html=1;strokeColor=none;fillColor=none;align=center;verticalAlign=middle;whiteSpace=wrap;rounded=0;fontSize=12;" vertex="1" parent="1">
          <mxGeometry x="1990" y="378.57" width="137" height="20" as="geometry" />
        </mxCell>
        <mxCell id="d1TsrUusoKjAXNjvLQ9p-77" value="&lt;span style=&quot;font-size: 12px;&quot;&gt;(-1|0)&lt;/span&gt;" style="whiteSpace=wrap;html=1;aspect=fixed;fontSize=12;fillColor=#fff2cc;strokeColor=#d6b656;gradientColor=#ffd966;" vertex="1" parent="1">
          <mxGeometry x="1982" y="516.5699999999999" width="38" height="38" as="geometry" />
        </mxCell>
        <mxCell id="d1TsrUusoKjAXNjvLQ9p-78" value="&lt;font style=&quot;&quot;&gt;(0|0)&lt;br&gt;&lt;font style=&quot;font-size: 6px;&quot;&gt;anchor&lt;/font&gt;&lt;br&gt;&lt;/font&gt;" style="whiteSpace=wrap;html=1;aspect=fixed;fontSize=12;horizontal=1;verticalAlign=middle;fillColor=#f8cecc;strokeColor=#b85450;gradientColor=#ea6b66;" vertex="1" parent="1">
          <mxGeometry x="1841" y="517.5699999999999" width="38" height="38" as="geometry" />
        </mxCell>
        <mxCell id="d1TsrUusoKjAXNjvLQ9p-79" value="&lt;span style=&quot;font-size: 12px;&quot;&gt;(0|-1)&lt;/span&gt;" style="whiteSpace=wrap;html=1;aspect=fixed;fontSize=12;fillColor=#fff2cc;strokeColor=#d6b656;gradientColor=#ffd966;" vertex="1" parent="1">
          <mxGeometry x="1841" y="555.57" width="38" height="38" as="geometry" />
        </mxCell>
        <mxCell id="d1TsrUusoKjAXNjvLQ9p-80" value="(1|0)" style="whiteSpace=wrap;html=1;aspect=fixed;fontSize=12;fillColor=#fff2cc;strokeColor=#d6b656;gradientColor=#ffd966;" vertex="1" parent="1">
          <mxGeometry x="1879" y="517.5699999999999" width="38" height="38" as="geometry" />
        </mxCell>
        <mxCell id="d1TsrUusoKjAXNjvLQ9p-81" value="(2|0)" style="whiteSpace=wrap;html=1;aspect=fixed;fontSize=12;fillColor=#fff2cc;strokeColor=#d6b656;gradientColor=#ffd966;" vertex="1" parent="1">
          <mxGeometry x="1917" y="517.5699999999999" width="38" height="38" as="geometry" />
        </mxCell>
        <mxCell id="d1TsrUusoKjAXNjvLQ9p-82" value="(2|0)" style="whiteSpace=wrap;html=1;aspect=fixed;fontSize=10;dashed=1;fontStyle=2;strokeColor=#B3B3B3;fontColor=#E6E6E6;" vertex="1" parent="1">
          <mxGeometry x="2096" y="516.5699999999999" width="38" height="38" as="geometry" />
        </mxCell>
        <mxCell id="d1TsrUusoKjAXNjvLQ9p-83" value="(1|0)" style="whiteSpace=wrap;html=1;aspect=fixed;fontSize=10;dashed=1;fontStyle=2;strokeColor=#B3B3B3;fontColor=#E6E6E6;" vertex="1" parent="1">
          <mxGeometry x="2058" y="516.5699999999999" width="38" height="38" as="geometry" />
        </mxCell>
        <mxCell id="d1TsrUusoKjAXNjvLQ9p-84" value="(1|-2)" style="whiteSpace=wrap;html=1;aspect=fixed;fontSize=10;dashed=1;fontStyle=2;strokeColor=#B3B3B3;fontColor=#E6E6E6;" vertex="1" parent="1">
          <mxGeometry x="2058" y="591.57" width="38" height="38" as="geometry" />
        </mxCell>
        <mxCell id="d1TsrUusoKjAXNjvLQ9p-85" value="(2|-2)" style="whiteSpace=wrap;html=1;aspect=fixed;fontSize=10;dashed=1;fontStyle=2;strokeColor=#B3B3B3;fontColor=#E6E6E6;" vertex="1" parent="1">
          <mxGeometry x="2096" y="590.57" width="38" height="38" as="geometry" />
        </mxCell>
        <mxCell id="d1TsrUusoKjAXNjvLQ9p-86" value="(0|1)" style="whiteSpace=wrap;html=1;aspect=fixed;fontSize=10;dashed=1;fontStyle=2;strokeColor=#B3B3B3;fontColor=#E6E6E6;" vertex="1" parent="1">
          <mxGeometry x="2020" y="478.57" width="38" height="38" as="geometry" />
        </mxCell>
        <mxCell id="d1TsrUusoKjAXNjvLQ9p-87" value="(0|2)" style="whiteSpace=wrap;html=1;aspect=fixed;fontSize=10;dashed=1;fontStyle=2;strokeColor=#B3B3B3;fontColor=#E6E6E6;" vertex="1" parent="1">
          <mxGeometry x="2020" y="440.57" width="38" height="38" as="geometry" />
        </mxCell>
        <mxCell id="d1TsrUusoKjAXNjvLQ9p-88" value="(-1|3)" style="whiteSpace=wrap;html=1;aspect=fixed;fontSize=10;dashed=1;fontStyle=2;strokeColor=#B3B3B3;fontColor=#E6E6E6;" vertex="1" parent="1">
          <mxGeometry x="1982" y="402.57" width="38" height="38" as="geometry" />
        </mxCell>
        <mxCell id="d1TsrUusoKjAXNjvLQ9p-89" value="(-1|1)" style="whiteSpace=wrap;html=1;aspect=fixed;fontSize=10;dashed=1;fontStyle=2;strokeColor=#B3B3B3;fontColor=#E6E6E6;" vertex="1" parent="1">
          <mxGeometry x="1982" y="478.57" width="38" height="38" as="geometry" />
        </mxCell>
        <mxCell id="d1TsrUusoKjAXNjvLQ9p-90" value="(-1|2)" style="whiteSpace=wrap;html=1;aspect=fixed;fontSize=10;dashed=1;fontStyle=2;strokeColor=#B3B3B3;fontColor=#E6E6E6;" vertex="1" parent="1">
          <mxGeometry x="1982" y="440.57" width="38" height="38" as="geometry" />
        </mxCell>
        <mxCell id="d1TsrUusoKjAXNjvLQ9p-91" value="(-1|-2)" style="whiteSpace=wrap;html=1;aspect=fixed;fontSize=10;dashed=1;fontStyle=2;strokeColor=#B3B3B3;fontColor=#E6E6E6;" vertex="1" parent="1">
          <mxGeometry x="1982" y="592.57" width="38" height="38" as="geometry" />
        </mxCell>
        <mxCell id="d1TsrUusoKjAXNjvLQ9p-92" value="(-1|-1)" style="whiteSpace=wrap;html=1;aspect=fixed;fontSize=10;dashed=1;fontStyle=2;strokeColor=#B3B3B3;fontColor=#E6E6E6;" vertex="1" parent="1">
          <mxGeometry x="1982" y="554.57" width="38" height="38" as="geometry" />
        </mxCell>
        <mxCell id="d1TsrUusoKjAXNjvLQ9p-93" value="&lt;font style=&quot;&quot;&gt;(0|0)&lt;br&gt;&lt;font style=&quot;font-size: 6px;&quot;&gt;anchor&lt;/font&gt;&lt;br&gt;&lt;/font&gt;" style="whiteSpace=wrap;html=1;aspect=fixed;fontSize=12;horizontal=1;verticalAlign=middle;fillColor=#f8cecc;strokeColor=#b85450;gradientColor=#ea6b66;" vertex="1" parent="1">
          <mxGeometry x="2248" y="516.5699999999999" width="38" height="38" as="geometry" />
        </mxCell>
        <mxCell id="d1TsrUusoKjAXNjvLQ9p-94" value="(1|2)" style="whiteSpace=wrap;html=1;aspect=fixed;fontSize=10;dashed=1;fontStyle=2;strokeColor=#B3B3B3;fontColor=#E6E6E6;" vertex="1" parent="1">
          <mxGeometry x="2286" y="440.57" width="38" height="38" as="geometry" />
        </mxCell>
        <mxCell id="d1TsrUusoKjAXNjvLQ9p-95" value="(1|1)" style="whiteSpace=wrap;html=1;aspect=fixed;fontSize=10;dashed=1;fontStyle=2;strokeColor=#B3B3B3;fontColor=#E6E6E6;" vertex="1" parent="1">
          <mxGeometry x="2286" y="478.57" width="38" height="38" as="geometry" />
        </mxCell>
        <mxCell id="d1TsrUusoKjAXNjvLQ9p-96" value="(0|3)" style="whiteSpace=wrap;html=1;aspect=fixed;fontSize=10;dashed=1;fontStyle=2;strokeColor=#B3B3B3;fontColor=#E6E6E6;" vertex="1" parent="1">
          <mxGeometry x="2248" y="402.57" width="38" height="38" as="geometry" />
        </mxCell>
        <mxCell id="d1TsrUusoKjAXNjvLQ9p-97" value="(1|3)" style="whiteSpace=wrap;html=1;aspect=fixed;fontSize=10;dashed=1;fontStyle=2;strokeColor=#B3B3B3;fontColor=#E6E6E6;" vertex="1" parent="1">
          <mxGeometry x="2286" y="402.57" width="38" height="38" as="geometry" />
        </mxCell>
        <mxCell id="d1TsrUusoKjAXNjvLQ9p-98" value="(-2|0)" style="whiteSpace=wrap;html=1;aspect=fixed;fontSize=12;fillColor=#fff2cc;strokeColor=#d6b656;gradientColor=#ffd966;" vertex="1" parent="1">
          <mxGeometry x="2172" y="516.5699999999999" width="38" height="38" as="geometry" />
        </mxCell>
        <mxCell id="d1TsrUusoKjAXNjvLQ9p-99" value="(0|2)" style="whiteSpace=wrap;html=1;aspect=fixed;fontSize=10;dashed=1;fontStyle=2;strokeColor=#B3B3B3;fontColor=#E6E6E6;" vertex="1" parent="1">
          <mxGeometry x="2248" y="440.57" width="38" height="38" as="geometry" />
        </mxCell>
        <mxCell id="d1TsrUusoKjAXNjvLQ9p-100" value="(1|-1)" style="whiteSpace=wrap;html=1;aspect=fixed;fontSize=10;dashed=1;fontStyle=2;strokeColor=#B3B3B3;fontColor=#E6E6E6;" vertex="1" parent="1">
          <mxGeometry x="2286" y="554.57" width="38" height="38" as="geometry" />
        </mxCell>
        <mxCell id="d1TsrUusoKjAXNjvLQ9p-101" value="(2|-1)" style="whiteSpace=wrap;html=1;aspect=fixed;fontSize=10;dashed=1;fontStyle=2;strokeColor=#B3B3B3;fontColor=#E6E6E6;" vertex="1" parent="1">
          <mxGeometry x="2324" y="554.57" width="38" height="38" as="geometry" />
        </mxCell>
        <mxCell id="d1TsrUusoKjAXNjvLQ9p-102" value="(2|2)" style="whiteSpace=wrap;html=1;aspect=fixed;fontSize=10;dashed=1;fontStyle=2;strokeColor=#B3B3B3;fontColor=#E6E6E6;" vertex="1" parent="1">
          <mxGeometry x="2324" y="440.57" width="38" height="38" as="geometry" />
        </mxCell>
        <mxCell id="d1TsrUusoKjAXNjvLQ9p-103" value="(2|1)" style="whiteSpace=wrap;html=1;aspect=fixed;fontSize=10;dashed=1;fontStyle=2;strokeColor=#B3B3B3;fontColor=#E6E6E6;" vertex="1" parent="1">
          <mxGeometry x="2324" y="478.57" width="38" height="38" as="geometry" />
        </mxCell>
        <mxCell id="d1TsrUusoKjAXNjvLQ9p-104" value="(2|3)" style="whiteSpace=wrap;html=1;aspect=fixed;fontSize=10;dashed=1;fontStyle=2;strokeColor=#B3B3B3;fontColor=#E6E6E6;" vertex="1" parent="1">
          <mxGeometry x="2324" y="402.57" width="38" height="38" as="geometry" />
        </mxCell>
        <mxCell id="d1TsrUusoKjAXNjvLQ9p-105" value="270°" style="text;html=1;strokeColor=none;fillColor=none;align=center;verticalAlign=middle;whiteSpace=wrap;rounded=0;fontSize=12;" vertex="1" parent="1">
          <mxGeometry x="2181" y="378.57" width="174" height="20" as="geometry" />
        </mxCell>
        <mxCell id="d1TsrUusoKjAXNjvLQ9p-106" value="&lt;span style=&quot;font-size: 12px;&quot;&gt;(-1|0)&lt;/span&gt;" style="whiteSpace=wrap;html=1;aspect=fixed;fontSize=12;fillColor=#fff2cc;strokeColor=#d6b656;gradientColor=#ffd966;" vertex="1" parent="1">
          <mxGeometry x="2210" y="516.5699999999999" width="38" height="38" as="geometry" />
        </mxCell>
        <mxCell id="d1TsrUusoKjAXNjvLQ9p-107" value="(2|0)" style="whiteSpace=wrap;html=1;aspect=fixed;fontSize=10;dashed=1;fontStyle=2;strokeColor=#B3B3B3;fontColor=#E6E6E6;" vertex="1" parent="1">
          <mxGeometry x="2324" y="516.5699999999999" width="38" height="38" as="geometry" />
        </mxCell>
        <mxCell id="d1TsrUusoKjAXNjvLQ9p-108" value="(1|0)" style="whiteSpace=wrap;html=1;aspect=fixed;fontSize=10;dashed=1;fontStyle=2;strokeColor=#B3B3B3;fontColor=#E6E6E6;" vertex="1" parent="1">
          <mxGeometry x="2286" y="516.5699999999999" width="38" height="38" as="geometry" />
        </mxCell>
        <mxCell id="d1TsrUusoKjAXNjvLQ9p-109" value="(1|-2)" style="whiteSpace=wrap;html=1;aspect=fixed;fontSize=10;dashed=1;fontStyle=2;strokeColor=#B3B3B3;fontColor=#E6E6E6;" vertex="1" parent="1">
          <mxGeometry x="2286" y="591.57" width="38" height="38" as="geometry" />
        </mxCell>
        <mxCell id="d1TsrUusoKjAXNjvLQ9p-110" value="(2|-2)" style="whiteSpace=wrap;html=1;aspect=fixed;fontSize=10;dashed=1;fontStyle=2;strokeColor=#B3B3B3;fontColor=#E6E6E6;" vertex="1" parent="1">
          <mxGeometry x="2324" y="590.57" width="38" height="38" as="geometry" />
        </mxCell>
        <mxCell id="d1TsrUusoKjAXNjvLQ9p-111" value="(0|2)" style="whiteSpace=wrap;html=1;aspect=fixed;fontSize=10;dashed=1;fontStyle=2;strokeColor=#B3B3B3;fontColor=#E6E6E6;" vertex="1" parent="1">
          <mxGeometry x="2248" y="440.57" width="38" height="38" as="geometry" />
        </mxCell>
        <mxCell id="d1TsrUusoKjAXNjvLQ9p-112" value="(-1|3)" style="whiteSpace=wrap;html=1;aspect=fixed;fontSize=10;dashed=1;fontStyle=2;strokeColor=#B3B3B3;fontColor=#E6E6E6;" vertex="1" parent="1">
          <mxGeometry x="2210" y="402.57" width="38" height="38" as="geometry" />
        </mxCell>
        <mxCell id="d1TsrUusoKjAXNjvLQ9p-113" value="(-1|1)" style="whiteSpace=wrap;html=1;aspect=fixed;fontSize=10;dashed=1;fontStyle=2;strokeColor=#B3B3B3;fontColor=#E6E6E6;" vertex="1" parent="1">
          <mxGeometry x="2210" y="478.57" width="38" height="38" as="geometry" />
        </mxCell>
        <mxCell id="d1TsrUusoKjAXNjvLQ9p-114" value="(-1|2)" style="whiteSpace=wrap;html=1;aspect=fixed;fontSize=10;dashed=1;fontStyle=2;strokeColor=#B3B3B3;fontColor=#E6E6E6;" vertex="1" parent="1">
          <mxGeometry x="2210" y="440.57" width="38" height="38" as="geometry" />
        </mxCell>
        <mxCell id="d1TsrUusoKjAXNjvLQ9p-115" value="(-1|-2)" style="whiteSpace=wrap;html=1;aspect=fixed;fontSize=10;dashed=1;fontStyle=2;strokeColor=#B3B3B3;fontColor=#E6E6E6;" vertex="1" parent="1">
          <mxGeometry x="2210" y="592.57" width="38" height="38" as="geometry" />
        </mxCell>
        <mxCell id="d1TsrUusoKjAXNjvLQ9p-116" value="(-1|-1)" style="whiteSpace=wrap;html=1;aspect=fixed;fontSize=10;dashed=1;fontStyle=2;strokeColor=#B3B3B3;fontColor=#E6E6E6;" vertex="1" parent="1">
          <mxGeometry x="2210" y="554.57" width="38" height="38" as="geometry" />
        </mxCell>
        <mxCell id="d1TsrUusoKjAXNjvLQ9p-117" value="(2|3)" style="whiteSpace=wrap;html=1;aspect=fixed;fontSize=10;dashed=1;fontStyle=2;strokeColor=#B3B3B3;fontColor=#E6E6E6;" vertex="1" parent="1">
          <mxGeometry x="2324" y="402.57" width="38" height="38" as="geometry" />
        </mxCell>
        <mxCell id="d1TsrUusoKjAXNjvLQ9p-118" value="(2|2)" style="whiteSpace=wrap;html=1;aspect=fixed;fontSize=10;dashed=1;fontStyle=2;strokeColor=#B3B3B3;fontColor=#E6E6E6;" vertex="1" parent="1">
          <mxGeometry x="2324" y="440.57" width="38" height="38" as="geometry" />
        </mxCell>
        <mxCell id="d1TsrUusoKjAXNjvLQ9p-119" value="(2|1)" style="whiteSpace=wrap;html=1;aspect=fixed;fontSize=10;dashed=1;fontStyle=2;strokeColor=#B3B3B3;fontColor=#E6E6E6;" vertex="1" parent="1">
          <mxGeometry x="2324" y="478.57" width="38" height="38" as="geometry" />
        </mxCell>
        <mxCell id="d1TsrUusoKjAXNjvLQ9p-120" value="(2|0)" style="whiteSpace=wrap;html=1;aspect=fixed;fontSize=10;dashed=1;fontStyle=2;strokeColor=#B3B3B3;fontColor=#E6E6E6;" vertex="1" parent="1">
          <mxGeometry x="2324" y="516.5699999999999" width="38" height="38" as="geometry" />
        </mxCell>
        <mxCell id="d1TsrUusoKjAXNjvLQ9p-121" value="(2|-1)" style="whiteSpace=wrap;html=1;aspect=fixed;fontSize=10;dashed=1;fontStyle=2;strokeColor=#B3B3B3;fontColor=#E6E6E6;" vertex="1" parent="1">
          <mxGeometry x="2324" y="554.57" width="38" height="38" as="geometry" />
        </mxCell>
        <mxCell id="d1TsrUusoKjAXNjvLQ9p-122" value="(-2|3)" style="whiteSpace=wrap;html=1;aspect=fixed;fontSize=10;dashed=1;fontStyle=2;strokeColor=#B3B3B3;fontColor=#E6E6E6;" vertex="1" parent="1">
          <mxGeometry x="2172" y="402.57" width="38" height="38" as="geometry" />
        </mxCell>
        <mxCell id="d1TsrUusoKjAXNjvLQ9p-123" value="(-2|2)" style="whiteSpace=wrap;html=1;aspect=fixed;fontSize=10;dashed=1;fontStyle=2;strokeColor=#B3B3B3;fontColor=#E6E6E6;" vertex="1" parent="1">
          <mxGeometry x="2172" y="440.57" width="38" height="38" as="geometry" />
        </mxCell>
        <mxCell id="d1TsrUusoKjAXNjvLQ9p-124" value="(-2|1)" style="whiteSpace=wrap;html=1;aspect=fixed;fontSize=10;dashed=1;fontStyle=2;strokeColor=#B3B3B3;fontColor=#E6E6E6;" vertex="1" parent="1">
          <mxGeometry x="2172" y="478.57" width="38" height="38" as="geometry" />
        </mxCell>
        <mxCell id="d1TsrUusoKjAXNjvLQ9p-125" value="(2|-1)" style="whiteSpace=wrap;html=1;aspect=fixed;fontSize=10;dashed=1;fontStyle=2;strokeColor=#B3B3B3;fontColor=#E6E6E6;" vertex="1" parent="1">
          <mxGeometry x="2172" y="554.57" width="38" height="38" as="geometry" />
        </mxCell>
        <mxCell id="d1TsrUusoKjAXNjvLQ9p-126" value="&lt;span style=&quot;font-size: 12px;&quot;&gt;(0|1)&lt;/span&gt;" style="whiteSpace=wrap;html=1;aspect=fixed;fontSize=12;fillColor=#fff2cc;strokeColor=#d6b656;gradientColor=#ffd966;" vertex="1" parent="1">
          <mxGeometry x="2248" y="478.57" width="38" height="38" as="geometry" />
        </mxCell>
        <mxCell id="d1TsrUusoKjAXNjvLQ9p-127" value="(2|-1)" style="whiteSpace=wrap;html=1;aspect=fixed;fontSize=10;dashed=1;fontStyle=2;strokeColor=#B3B3B3;fontColor=#E6E6E6;" vertex="1" parent="1">
          <mxGeometry x="2172" y="592.57" width="38" height="38" as="geometry" />
        </mxCell>
        <mxCell id="d1TsrUusoKjAXNjvLQ9p-128" value="(0|-1)" style="whiteSpace=wrap;html=1;aspect=fixed;fontSize=10;dashed=1;fontStyle=2;strokeColor=#B3B3B3;fontColor=#E6E6E6;" vertex="1" parent="1">
          <mxGeometry x="2248" y="554.57" width="38" height="38" as="geometry" />
        </mxCell>
        <mxCell id="d1TsrUusoKjAXNjvLQ9p-129" value="(0|-2)" style="whiteSpace=wrap;html=1;aspect=fixed;fontSize=10;dashed=1;fontStyle=2;strokeColor=#B3B3B3;fontColor=#E6E6E6;" vertex="1" parent="1">
          <mxGeometry x="2248" y="592.57" width="38" height="38" as="geometry" />
        </mxCell>
        <mxCell id="d1TsrUusoKjAXNjvLQ9p-130" value="" style="endArrow=none;dashed=1;html=1;dashPattern=1 3;strokeWidth=1;rounded=0;fontSize=1;fontColor=#E6E6E6;elbow=vertical;jumpStyle=gap;jumpSize=15;" edge="1" parent="1" source="d1TsrUusoKjAXNjvLQ9p-131">
          <mxGeometry width="50" height="50" relative="1" as="geometry">
            <mxPoint x="1621" y="90.57000000000016" as="sourcePoint" />
            <mxPoint x="2121" y="120" as="targetPoint" />
          </mxGeometry>
        </mxCell>
        <mxCell id="d1TsrUusoKjAXNjvLQ9p-131" value="TileTemplate" style="text;html=1;strokeColor=none;fillColor=none;align=left;verticalAlign=middle;whiteSpace=wrap;rounded=0;fontSize=12;" vertex="1" parent="1">
          <mxGeometry x="2162" y="70.57" width="24" height="20" as="geometry" />
        </mxCell>
        <mxCell id="d1TsrUusoKjAXNjvLQ9p-132" value="Tile Field" style="text;html=1;strokeColor=none;fillColor=none;align=left;verticalAlign=middle;whiteSpace=wrap;rounded=0;fontSize=12;" vertex="1" parent="1">
          <mxGeometry x="2210" y="209" width="24" height="20" as="geometry" />
        </mxCell>
        <mxCell id="d1TsrUusoKjAXNjvLQ9p-133" value="" style="endArrow=none;dashed=1;html=1;dashPattern=1 3;strokeWidth=1;rounded=0;fontSize=1;fontColor=#E6E6E6;elbow=vertical;jumpStyle=gap;jumpSize=15;entryX=0.526;entryY=0.342;entryDx=0;entryDy=0;entryPerimeter=0;" edge="1" parent="1" target="d1TsrUusoKjAXNjvLQ9p-33" source="d1TsrUusoKjAXNjvLQ9p-132">
          <mxGeometry width="50" height="50" relative="1" as="geometry">
            <mxPoint x="1631" y="230.57000000000016" as="sourcePoint" />
            <mxPoint x="1731" y="180.57" as="targetPoint" />
          </mxGeometry>
        </mxCell>
        <mxCell id="d1TsrUusoKjAXNjvLQ9p-134" value="(0|0)" style="whiteSpace=wrap;html=1;aspect=fixed;fontSize=10;dashed=1;fontStyle=2;strokeColor=#B3B3B3;fontColor=#E6E6E6;" vertex="1" parent="1">
          <mxGeometry x="1700" y="950" width="38" height="38" as="geometry" />
        </mxCell>
        <mxCell id="d1TsrUusoKjAXNjvLQ9p-135" value="(1|0)" style="whiteSpace=wrap;html=1;aspect=fixed;fontSize=10;dashed=1;fontStyle=2;strokeColor=#B3B3B3;fontColor=#E6E6E6;" vertex="1" parent="1">
          <mxGeometry x="1738" y="950" width="38" height="38" as="geometry" />
        </mxCell>
        <mxCell id="d1TsrUusoKjAXNjvLQ9p-136" value="(2|0)" style="whiteSpace=wrap;html=1;aspect=fixed;fontSize=10;dashed=1;fontStyle=2;strokeColor=#B3B3B3;fontColor=#E6E6E6;" vertex="1" parent="1">
          <mxGeometry x="1776" y="950" width="38" height="38" as="geometry" />
        </mxCell>
        <mxCell id="d1TsrUusoKjAXNjvLQ9p-137" value="(3|0)" style="whiteSpace=wrap;html=1;aspect=fixed;fontSize=10;dashed=1;fontStyle=2;strokeColor=#B3B3B3;fontColor=#E6E6E6;" vertex="1" parent="1">
          <mxGeometry x="1814" y="950" width="38" height="38" as="geometry" />
        </mxCell>
        <mxCell id="d1TsrUusoKjAXNjvLQ9p-138" value="(4|0)" style="whiteSpace=wrap;html=1;aspect=fixed;fontSize=10;dashed=1;fontStyle=2;strokeColor=#B3B3B3;fontColor=#E6E6E6;" vertex="1" parent="1">
          <mxGeometry x="1852" y="950" width="38" height="38" as="geometry" />
        </mxCell>
        <mxCell id="d1TsrUusoKjAXNjvLQ9p-139" value="(5|0)" style="whiteSpace=wrap;html=1;aspect=fixed;fontSize=10;dashed=1;fontStyle=2;strokeColor=#B3B3B3;fontColor=#E6E6E6;" vertex="1" parent="1">
          <mxGeometry x="1890" y="950" width="38" height="38" as="geometry" />
        </mxCell>
        <mxCell id="d1TsrUusoKjAXNjvLQ9p-140" value="(0|1)" style="whiteSpace=wrap;html=1;aspect=fixed;fontSize=10;dashed=1;fontStyle=2;strokeColor=#B3B3B3;fontColor=#E6E6E6;" vertex="1" parent="1">
          <mxGeometry x="1700" y="912" width="38" height="38" as="geometry" />
        </mxCell>
        <mxCell id="d1TsrUusoKjAXNjvLQ9p-141" value="(1|1)" style="whiteSpace=wrap;html=1;aspect=fixed;fontSize=10;dashed=1;fontStyle=2;strokeColor=#B3B3B3;fontColor=#E6E6E6;" vertex="1" parent="1">
          <mxGeometry x="1738" y="912" width="38" height="38" as="geometry" />
        </mxCell>
        <mxCell id="d1TsrUusoKjAXNjvLQ9p-142" value="(2|1)" style="whiteSpace=wrap;html=1;aspect=fixed;fontSize=10;dashed=1;fontStyle=2;strokeColor=#B3B3B3;fontColor=#E6E6E6;" vertex="1" parent="1">
          <mxGeometry x="1776" y="912" width="38" height="38" as="geometry" />
        </mxCell>
        <mxCell id="d1TsrUusoKjAXNjvLQ9p-143" value="(3|1)" style="whiteSpace=wrap;html=1;aspect=fixed;fontSize=10;dashed=1;fontStyle=2;strokeColor=#B3B3B3;fontColor=#E6E6E6;" vertex="1" parent="1">
          <mxGeometry x="1814" y="912" width="38" height="38" as="geometry" />
        </mxCell>
        <mxCell id="d1TsrUusoKjAXNjvLQ9p-144" value="(4|1)" style="whiteSpace=wrap;html=1;aspect=fixed;fontSize=10;dashed=1;fontStyle=2;strokeColor=#B3B3B3;fontColor=#E6E6E6;" vertex="1" parent="1">
          <mxGeometry x="1852" y="912" width="38" height="38" as="geometry" />
        </mxCell>
        <mxCell id="d1TsrUusoKjAXNjvLQ9p-145" value="(5|1)" style="whiteSpace=wrap;html=1;aspect=fixed;fontSize=10;dashed=1;fontStyle=2;strokeColor=#B3B3B3;fontColor=#E6E6E6;" vertex="1" parent="1">
          <mxGeometry x="1890" y="912" width="38" height="38" as="geometry" />
        </mxCell>
        <mxCell id="d1TsrUusoKjAXNjvLQ9p-146" value="(0|2)" style="whiteSpace=wrap;html=1;aspect=fixed;fontSize=10;dashed=1;fontStyle=2;strokeColor=#B3B3B3;fontColor=#E6E6E6;" vertex="1" parent="1">
          <mxGeometry x="1700" y="874" width="38" height="38" as="geometry" />
        </mxCell>
        <mxCell id="d1TsrUusoKjAXNjvLQ9p-147" value="(1|2)" style="whiteSpace=wrap;html=1;aspect=fixed;fontSize=10;dashed=1;fontStyle=2;strokeColor=#B3B3B3;fontColor=#E6E6E6;" vertex="1" parent="1">
          <mxGeometry x="1738" y="874" width="38" height="38" as="geometry" />
        </mxCell>
        <mxCell id="d1TsrUusoKjAXNjvLQ9p-148" value="(2|2)" style="whiteSpace=wrap;html=1;aspect=fixed;fontSize=10;dashed=1;fontStyle=2;strokeColor=#B3B3B3;fontColor=#E6E6E6;" vertex="1" parent="1">
          <mxGeometry x="1776" y="874" width="38" height="38" as="geometry" />
        </mxCell>
        <mxCell id="d1TsrUusoKjAXNjvLQ9p-149" value="(3|2)" style="whiteSpace=wrap;html=1;aspect=fixed;fontSize=10;dashed=1;fontStyle=2;strokeColor=#B3B3B3;fontColor=#E6E6E6;" vertex="1" parent="1">
          <mxGeometry x="1814" y="874" width="38" height="38" as="geometry" />
        </mxCell>
        <mxCell id="d1TsrUusoKjAXNjvLQ9p-150" value="(4|2)" style="whiteSpace=wrap;html=1;aspect=fixed;fontSize=10;dashed=1;fontStyle=2;strokeColor=#B3B3B3;fontColor=#E6E6E6;" vertex="1" parent="1">
          <mxGeometry x="1852" y="874" width="38" height="38" as="geometry" />
        </mxCell>
        <mxCell id="d1TsrUusoKjAXNjvLQ9p-151" value="(5|2)" style="whiteSpace=wrap;html=1;aspect=fixed;fontSize=10;dashed=1;fontStyle=2;strokeColor=#B3B3B3;fontColor=#E6E6E6;" vertex="1" parent="1">
          <mxGeometry x="1890" y="874" width="38" height="38" as="geometry" />
        </mxCell>
        <mxCell id="d1TsrUusoKjAXNjvLQ9p-152" value="(0|3)" style="whiteSpace=wrap;html=1;aspect=fixed;fontSize=10;dashed=1;fontStyle=2;strokeColor=#B3B3B3;fontColor=#E6E6E6;" vertex="1" parent="1">
          <mxGeometry x="1700" y="836" width="38" height="38" as="geometry" />
        </mxCell>
        <mxCell id="d1TsrUusoKjAXNjvLQ9p-153" value="(1|3)" style="whiteSpace=wrap;html=1;aspect=fixed;fontSize=10;dashed=1;fontStyle=2;strokeColor=#B3B3B3;fontColor=#E6E6E6;" vertex="1" parent="1">
          <mxGeometry x="1738" y="836" width="38" height="38" as="geometry" />
        </mxCell>
        <mxCell id="d1TsrUusoKjAXNjvLQ9p-154" value="(3|3)" style="whiteSpace=wrap;html=1;aspect=fixed;fontSize=10;fontStyle=0;strokeColor=#d6b656;fillColor=#fff2cc;gradientColor=#ffd966;" vertex="1" parent="1">
          <mxGeometry x="1814" y="836" width="38" height="38" as="geometry" />
        </mxCell>
        <mxCell id="d1TsrUusoKjAXNjvLQ9p-155" value="(4|3)" style="whiteSpace=wrap;html=1;aspect=fixed;fontSize=10;dashed=1;fontStyle=2;strokeColor=#B3B3B3;fontColor=#E6E6E6;" vertex="1" parent="1">
          <mxGeometry x="1852" y="836" width="38" height="38" as="geometry" />
        </mxCell>
        <mxCell id="d1TsrUusoKjAXNjvLQ9p-156" value="(5|3)" style="whiteSpace=wrap;html=1;aspect=fixed;fontSize=10;dashed=1;fontStyle=2;strokeColor=#B3B3B3;fontColor=#E6E6E6;" vertex="1" parent="1">
          <mxGeometry x="1890" y="836" width="38" height="38" as="geometry" />
        </mxCell>
        <mxCell id="d1TsrUusoKjAXNjvLQ9p-157" value="(0|4)" style="whiteSpace=wrap;html=1;aspect=fixed;fontSize=10;dashed=1;fontStyle=2;strokeColor=#B3B3B3;fontColor=#E6E6E6;" vertex="1" parent="1">
          <mxGeometry x="1700" y="798" width="38" height="38" as="geometry" />
        </mxCell>
        <mxCell id="d1TsrUusoKjAXNjvLQ9p-158" value="(1|4)" style="whiteSpace=wrap;html=1;aspect=fixed;fontSize=10;dashed=1;fontStyle=2;strokeColor=#B3B3B3;fontColor=#E6E6E6;" vertex="1" parent="1">
          <mxGeometry x="1738" y="798" width="38" height="38" as="geometry" />
        </mxCell>
        <mxCell id="d1TsrUusoKjAXNjvLQ9p-159" value="(2|4)" style="whiteSpace=wrap;html=1;aspect=fixed;fontSize=10;fontStyle=0;strokeColor=#d6b656;fillColor=#fff2cc;gradientColor=#ffd966;" vertex="1" parent="1">
          <mxGeometry x="1776" y="798" width="38" height="38" as="geometry" />
        </mxCell>
        <mxCell id="d1TsrUusoKjAXNjvLQ9p-160" value="(3|4)" style="whiteSpace=wrap;html=1;aspect=fixed;fontSize=10;dashed=1;fontStyle=2;strokeColor=#B3B3B3;fontColor=#E6E6E6;" vertex="1" parent="1">
          <mxGeometry x="1814" y="798" width="38" height="38" as="geometry" />
        </mxCell>
        <mxCell id="d1TsrUusoKjAXNjvLQ9p-161" value="(4|4)" style="whiteSpace=wrap;html=1;aspect=fixed;fontSize=10;dashed=1;fontStyle=2;strokeColor=#B3B3B3;fontColor=#E6E6E6;" vertex="1" parent="1">
          <mxGeometry x="1852" y="798" width="38" height="38" as="geometry" />
        </mxCell>
        <mxCell id="d1TsrUusoKjAXNjvLQ9p-162" value="(5|4)" style="whiteSpace=wrap;html=1;aspect=fixed;fontSize=10;dashed=1;fontStyle=2;strokeColor=#B3B3B3;fontColor=#E6E6E6;" vertex="1" parent="1">
          <mxGeometry x="1890" y="798" width="38" height="38" as="geometry" />
        </mxCell>
        <mxCell id="d1TsrUusoKjAXNjvLQ9p-163" value="(0|5)" style="whiteSpace=wrap;html=1;aspect=fixed;fontSize=10;dashed=1;fontStyle=2;strokeColor=#B3B3B3;fontColor=#E6E6E6;" vertex="1" parent="1">
          <mxGeometry x="1700" y="760" width="38" height="38" as="geometry" />
        </mxCell>
        <mxCell id="d1TsrUusoKjAXNjvLQ9p-164" value="(1|5)" style="whiteSpace=wrap;html=1;aspect=fixed;fontSize=10;dashed=1;fontStyle=2;strokeColor=#B3B3B3;fontColor=#E6E6E6;" vertex="1" parent="1">
          <mxGeometry x="1738" y="760" width="38" height="38" as="geometry" />
        </mxCell>
        <mxCell id="d1TsrUusoKjAXNjvLQ9p-165" value="(2|5)" style="whiteSpace=wrap;html=1;aspect=fixed;fontSize=10;fontStyle=0;strokeColor=#d6b656;fillColor=#fff2cc;gradientColor=#ffd966;" vertex="1" parent="1">
          <mxGeometry x="1776" y="760" width="38" height="38" as="geometry" />
        </mxCell>
        <mxCell id="d1TsrUusoKjAXNjvLQ9p-166" value="(3|5)" style="whiteSpace=wrap;html=1;aspect=fixed;fontSize=10;dashed=1;fontStyle=2;strokeColor=#B3B3B3;fontColor=#E6E6E6;" vertex="1" parent="1">
          <mxGeometry x="1814" y="760" width="38" height="38" as="geometry" />
        </mxCell>
        <mxCell id="d1TsrUusoKjAXNjvLQ9p-167" value="(4|5)" style="whiteSpace=wrap;html=1;aspect=fixed;fontSize=10;dashed=1;fontStyle=2;strokeColor=#B3B3B3;fontColor=#E6E6E6;" vertex="1" parent="1">
          <mxGeometry x="1852" y="760" width="38" height="38" as="geometry" />
        </mxCell>
        <mxCell id="d1TsrUusoKjAXNjvLQ9p-168" value="(5|5)" style="whiteSpace=wrap;html=1;aspect=fixed;fontSize=10;dashed=1;fontStyle=2;strokeColor=#B3B3B3;fontColor=#E6E6E6;" vertex="1" parent="1">
          <mxGeometry x="1890" y="760" width="38" height="38" as="geometry" />
        </mxCell>
        <mxCell id="d1TsrUusoKjAXNjvLQ9p-169" value="addTile(L-Tile, 0°, (2|3),RED)" style="text;html=1;strokeColor=none;fillColor=none;align=left;verticalAlign=middle;whiteSpace=wrap;rounded=0;fontSize=10;fontFamily=Lucida Console;" vertex="1" parent="1">
          <mxGeometry x="1700" y="730" width="220" height="20" as="geometry" />
        </mxCell>
        <mxCell id="d1TsrUusoKjAXNjvLQ9p-170" value="L-Tile" style="text;html=1;strokeColor=none;fillColor=none;align=center;verticalAlign=middle;whiteSpace=wrap;rounded=0;fontSize=12;" vertex="1" parent="1">
          <mxGeometry x="1731" y="290" width="70" height="20" as="geometry" />
        </mxCell>
        <mxCell id="d1TsrUusoKjAXNjvLQ9p-171" value="O-Tile" style="text;html=1;strokeColor=none;fillColor=none;align=center;verticalAlign=middle;whiteSpace=wrap;rounded=0;fontSize=12;" vertex="1" parent="1">
          <mxGeometry x="1831" y="290" width="76" height="20" as="geometry" />
        </mxCell>
        <mxCell id="d1TsrUusoKjAXNjvLQ9p-172" value="S-Tile" style="text;html=1;strokeColor=none;fillColor=none;align=center;verticalAlign=middle;whiteSpace=wrap;rounded=0;fontSize=12;" vertex="1" parent="1">
          <mxGeometry x="1941" y="287.57" width="76" height="20" as="geometry" />
        </mxCell>
        <mxCell id="d1TsrUusoKjAXNjvLQ9p-173" value="I-Tile" style="text;html=1;strokeColor=none;fillColor=none;align=center;verticalAlign=middle;whiteSpace=wrap;rounded=0;fontSize=12;" vertex="1" parent="1">
          <mxGeometry x="2051" y="287.57" width="76" height="20" as="geometry" />
        </mxCell>
        <mxCell id="d1TsrUusoKjAXNjvLQ9p-174" value="&lt;font style=&quot;&quot;&gt;(2|3)&lt;br style=&quot;font-size: 10px;&quot;&gt;&lt;font style=&quot;font-size: 7px;&quot;&gt;anchor&lt;/font&gt;&lt;br style=&quot;font-size: 10px;&quot;&gt;&lt;/font&gt;" style="whiteSpace=wrap;html=1;aspect=fixed;fontSize=10;horizontal=1;verticalAlign=middle;fillColor=#f8cecc;strokeColor=#b85450;gradientColor=#ea6b66;" vertex="1" parent="1">
          <mxGeometry x="1776" y="836" width="38" height="38" as="geometry" />
        </mxCell>
        <mxCell id="d1TsrUusoKjAXNjvLQ9p-175" value="&lt;font face=&quot;Helvetica&quot;&gt;&lt;b&gt;Variablen (addTile)&lt;br&gt;&lt;/b&gt;&lt;ul&gt;&lt;li&gt;&lt;font face=&quot;Helvetica&quot;&gt;columnTile (cT)&amp;nbsp;&amp;nbsp;&lt;/font&gt;&lt;/li&gt;&lt;li&gt;&lt;font face=&quot;Helvetica&quot;&gt;rowTile (rT)&amp;nbsp;&lt;/font&gt;&lt;/li&gt;&lt;li&gt;&lt;font face=&quot;Helvetica&quot;&gt;columnBoard (cB) -&amp;gt; 2&lt;/font&gt;&lt;/li&gt;&lt;li&gt;&lt;font face=&quot;Helvetica&quot;&gt;rowBoard (rB) -&amp;gt; 3&lt;/font&gt;&lt;/li&gt;&lt;li&gt;&lt;font face=&quot;Helvetica&quot;&gt;rotation (r) -&amp;gt; 0°&lt;/font&gt;&lt;/li&gt;&lt;/ul&gt;&lt;/font&gt;" style="text;html=1;strokeColor=none;fillColor=none;align=left;verticalAlign=middle;whiteSpace=wrap;rounded=0;fontSize=10;fontFamily=Lucida Console;" vertex="1" parent="1">
          <mxGeometry x="1965" y="742" width="273" height="102" as="geometry" />
        </mxCell>
        <mxCell id="d1TsrUusoKjAXNjvLQ9p-176" value="&lt;font face=&quot;Helvetica&quot;&gt;&lt;span&gt;iterate over all tile fields and calculate&lt;br&gt;the new position of the field in the coordinate system of the board&lt;br&gt;&lt;br&gt;New Position of the tile on the board is&lt;br&gt;(cT + cB | rT + rB)&lt;br&gt;&lt;/span&gt;&lt;/font&gt;" style="text;html=1;strokeColor=none;fillColor=none;align=left;verticalAlign=middle;whiteSpace=wrap;rounded=0;fontSize=10;fontFamily=Lucida Console;fontStyle=0" vertex="1" parent="1">
          <mxGeometry x="1965" y="836" width="220" height="90" as="geometry" />
        </mxCell>
        <mxCell id="d1TsrUusoKjAXNjvLQ9p-177" value="&lt;font face=&quot;Helvetica&quot;&gt;&lt;span&gt;&lt;b&gt;Generic Calcularion based on position, tile and rotation&lt;/b&gt;&lt;br&gt;&lt;/span&gt;&lt;/font&gt;" style="text;html=1;strokeColor=none;fillColor=none;align=left;verticalAlign=middle;whiteSpace=wrap;rounded=0;fontSize=10;fontFamily=Lucida Console;fontStyle=0" vertex="1" parent="1">
          <mxGeometry x="1958" y="1060" width="220" height="44" as="geometry" />
        </mxCell>
        <mxCell id="d1TsrUusoKjAXNjvLQ9p-178" value="&lt;p&gt;&lt;font face=&quot;Helvetica&quot;&gt;&lt;b&gt;0°&amp;nbsp;&lt;br&gt;90°&amp;nbsp;&lt;br&gt;180°&lt;br&gt;270°&lt;/b&gt;&lt;/font&gt;&lt;/p&gt;" style="text;html=1;strokeColor=none;fillColor=none;align=right;verticalAlign=middle;whiteSpace=wrap;rounded=0;fontSize=10;fontFamily=Lucida Console;spacing=2;" vertex="1" parent="1">
          <mxGeometry x="1708.75" y="585" width="39" height="59.43" as="geometry" />
        </mxCell>
        <mxCell id="d1TsrUusoKjAXNjvLQ9p-179" value="&lt;p&gt;&lt;font face=&quot;Helvetica&quot;&gt;(cT | rT)&lt;br&gt;(rT | -1 * cT)&lt;br&gt;(-1 * cT | -1 * rT)&lt;br&gt;(-1 * rT | cT|)&lt;/font&gt;&lt;/p&gt;" style="text;html=1;strokeColor=none;fillColor=none;align=left;verticalAlign=middle;whiteSpace=wrap;rounded=0;fontSize=10;fontFamily=Lucida Console;spacing=2;" vertex="1" parent="1">
          <mxGeometry x="1751.25" y="585" width="82" height="59.43" as="geometry" />
        </mxCell>
        <mxCell id="d1TsrUusoKjAXNjvLQ9p-180" value="&lt;p&gt;&lt;font face=&quot;Helvetica&quot;&gt;&lt;b&gt;0°&amp;nbsp;&lt;br&gt;90°&amp;nbsp;&lt;br&gt;180°&lt;br&gt;270°&lt;/b&gt;&lt;/font&gt;&lt;/p&gt;" style="text;html=1;strokeColor=none;fillColor=none;align=right;verticalAlign=middle;whiteSpace=wrap;rounded=0;fontSize=10;fontFamily=Lucida Console;spacing=2;" vertex="1" parent="1">
          <mxGeometry x="1958" y="1104" width="39" height="59.43" as="geometry" />
        </mxCell>
        <mxCell id="d1TsrUusoKjAXNjvLQ9p-181" value="&lt;p&gt;&lt;span style=&quot;font-family: Helvetica;&quot;&gt;(cT + cB | rT + rB)&lt;/span&gt;&lt;font face=&quot;Helvetica&quot;&gt;&lt;br&gt;(rT + cB| (-1 * cT) + rB)&lt;br&gt;((-1 * cT) + cB | (-1 * rT) + rB)&lt;br&gt;((-1 * rT) + cB | cT + rB)&lt;/font&gt;&lt;/p&gt;" style="text;html=1;strokeColor=none;fillColor=none;align=left;verticalAlign=middle;whiteSpace=wrap;rounded=0;fontSize=10;fontFamily=Lucida Console;spacing=2;" vertex="1" parent="1">
          <mxGeometry x="2000.5" y="1104" width="273" height="59.43" as="geometry" />
        </mxCell>
        <mxCell id="d1TsrUusoKjAXNjvLQ9p-182" value="(0|0)" style="whiteSpace=wrap;html=1;aspect=fixed;fontSize=10;dashed=1;fontStyle=2;strokeColor=#B3B3B3;fontColor=#E6E6E6;" vertex="1" parent="1">
          <mxGeometry x="1700" y="1256.72" width="38" height="38" as="geometry" />
        </mxCell>
        <mxCell id="d1TsrUusoKjAXNjvLQ9p-183" value="(1|0)" style="whiteSpace=wrap;html=1;aspect=fixed;fontSize=10;dashed=1;fontStyle=2;strokeColor=#B3B3B3;fontColor=#E6E6E6;" vertex="1" parent="1">
          <mxGeometry x="1738" y="1256.72" width="38" height="38" as="geometry" />
        </mxCell>
        <mxCell id="d1TsrUusoKjAXNjvLQ9p-184" value="(2|0)" style="whiteSpace=wrap;html=1;aspect=fixed;fontSize=10;dashed=1;fontStyle=2;strokeColor=#B3B3B3;fontColor=#E6E6E6;" vertex="1" parent="1">
          <mxGeometry x="1776" y="1256.72" width="38" height="38" as="geometry" />
        </mxCell>
        <mxCell id="d1TsrUusoKjAXNjvLQ9p-185" value="(3|0)" style="whiteSpace=wrap;html=1;aspect=fixed;fontSize=10;dashed=1;fontStyle=2;strokeColor=#B3B3B3;fontColor=#E6E6E6;" vertex="1" parent="1">
          <mxGeometry x="1814" y="1256.72" width="38" height="38" as="geometry" />
        </mxCell>
        <mxCell id="d1TsrUusoKjAXNjvLQ9p-186" value="(4|0)" style="whiteSpace=wrap;html=1;aspect=fixed;fontSize=10;dashed=1;fontStyle=2;strokeColor=#B3B3B3;fontColor=#E6E6E6;" vertex="1" parent="1">
          <mxGeometry x="1852" y="1256.72" width="38" height="38" as="geometry" />
        </mxCell>
        <mxCell id="d1TsrUusoKjAXNjvLQ9p-187" value="(5|0)" style="whiteSpace=wrap;html=1;aspect=fixed;fontSize=10;dashed=1;fontStyle=2;strokeColor=#B3B3B3;fontColor=#E6E6E6;" vertex="1" parent="1">
          <mxGeometry x="1890" y="1256.72" width="38" height="38" as="geometry" />
        </mxCell>
        <mxCell id="d1TsrUusoKjAXNjvLQ9p-188" value="(0|1)" style="whiteSpace=wrap;html=1;aspect=fixed;fontSize=10;dashed=1;fontStyle=2;strokeColor=#B3B3B3;fontColor=#E6E6E6;" vertex="1" parent="1">
          <mxGeometry x="1700" y="1218.72" width="38" height="38" as="geometry" />
        </mxCell>
        <mxCell id="d1TsrUusoKjAXNjvLQ9p-189" value="(1|1)" style="whiteSpace=wrap;html=1;aspect=fixed;fontSize=10;dashed=1;fontStyle=2;strokeColor=#B3B3B3;fontColor=#E6E6E6;" vertex="1" parent="1">
          <mxGeometry x="1738" y="1218.72" width="38" height="38" as="geometry" />
        </mxCell>
        <mxCell id="d1TsrUusoKjAXNjvLQ9p-190" value="(2|1)" style="whiteSpace=wrap;html=1;aspect=fixed;fontSize=10;dashed=1;fontStyle=2;strokeColor=#B3B3B3;fontColor=#E6E6E6;" vertex="1" parent="1">
          <mxGeometry x="1776" y="1218.72" width="38" height="38" as="geometry" />
        </mxCell>
        <mxCell id="d1TsrUusoKjAXNjvLQ9p-191" value="(3|1)" style="whiteSpace=wrap;html=1;aspect=fixed;fontSize=10;dashed=1;fontStyle=2;strokeColor=#B3B3B3;fontColor=#E6E6E6;" vertex="1" parent="1">
          <mxGeometry x="1814" y="1218.72" width="38" height="38" as="geometry" />
        </mxCell>
        <mxCell id="d1TsrUusoKjAXNjvLQ9p-192" value="(4|1)" style="whiteSpace=wrap;html=1;aspect=fixed;fontSize=10;dashed=1;fontStyle=2;strokeColor=#B3B3B3;fontColor=#E6E6E6;" vertex="1" parent="1">
          <mxGeometry x="1852" y="1218.72" width="38" height="38" as="geometry" />
        </mxCell>
        <mxCell id="d1TsrUusoKjAXNjvLQ9p-193" value="(5|1)" style="whiteSpace=wrap;html=1;aspect=fixed;fontSize=10;dashed=1;fontStyle=2;strokeColor=#B3B3B3;fontColor=#E6E6E6;" vertex="1" parent="1">
          <mxGeometry x="1890" y="1218.72" width="38" height="38" as="geometry" />
        </mxCell>
        <mxCell id="d1TsrUusoKjAXNjvLQ9p-194" value="(0|2)" style="whiteSpace=wrap;html=1;aspect=fixed;fontSize=10;dashed=1;fontStyle=2;strokeColor=#B3B3B3;fontColor=#E6E6E6;" vertex="1" parent="1">
          <mxGeometry x="1700" y="1180.72" width="38" height="38" as="geometry" />
        </mxCell>
        <mxCell id="d1TsrUusoKjAXNjvLQ9p-195" value="(1|2)" style="whiteSpace=wrap;html=1;aspect=fixed;fontSize=10;dashed=1;fontStyle=2;strokeColor=#B3B3B3;fontColor=#E6E6E6;" vertex="1" parent="1">
          <mxGeometry x="1738" y="1180.72" width="38" height="38" as="geometry" />
        </mxCell>
        <mxCell id="d1TsrUusoKjAXNjvLQ9p-196" value="(2|2)" style="whiteSpace=wrap;html=1;aspect=fixed;fontSize=10;fontStyle=0;strokeColor=#d6b656;fillColor=#fff2cc;gradientColor=#ffd966;" vertex="1" parent="1">
          <mxGeometry x="1776" y="1180.72" width="38" height="38" as="geometry" />
        </mxCell>
        <mxCell id="d1TsrUusoKjAXNjvLQ9p-197" value="(3|2)" style="whiteSpace=wrap;html=1;aspect=fixed;fontSize=10;dashed=1;fontStyle=2;strokeColor=#B3B3B3;fontColor=#E6E6E6;" vertex="1" parent="1">
          <mxGeometry x="1814" y="1180.72" width="38" height="38" as="geometry" />
        </mxCell>
        <mxCell id="d1TsrUusoKjAXNjvLQ9p-198" value="(4|2)" style="whiteSpace=wrap;html=1;aspect=fixed;fontSize=10;dashed=1;fontStyle=2;strokeColor=#B3B3B3;fontColor=#E6E6E6;" vertex="1" parent="1">
          <mxGeometry x="1852" y="1180.72" width="38" height="38" as="geometry" />
        </mxCell>
        <mxCell id="d1TsrUusoKjAXNjvLQ9p-199" value="(5|2)" style="whiteSpace=wrap;html=1;aspect=fixed;fontSize=10;dashed=1;fontStyle=2;strokeColor=#B3B3B3;fontColor=#E6E6E6;" vertex="1" parent="1">
          <mxGeometry x="1890" y="1180.72" width="38" height="38" as="geometry" />
        </mxCell>
        <mxCell id="d1TsrUusoKjAXNjvLQ9p-200" value="(0|3)" style="whiteSpace=wrap;html=1;aspect=fixed;fontSize=10;dashed=1;fontStyle=2;strokeColor=#B3B3B3;fontColor=#E6E6E6;" vertex="1" parent="1">
          <mxGeometry x="1700" y="1142.72" width="38" height="38" as="geometry" />
        </mxCell>
        <mxCell id="d1TsrUusoKjAXNjvLQ9p-201" value="(1|3)" style="whiteSpace=wrap;html=1;aspect=fixed;fontSize=10;dashed=1;fontStyle=2;strokeColor=#B3B3B3;fontColor=#E6E6E6;" vertex="1" parent="1">
          <mxGeometry x="1738" y="1142.72" width="38" height="38" as="geometry" />
        </mxCell>
        <mxCell id="d1TsrUusoKjAXNjvLQ9p-202" value="(2|3)" style="whiteSpace=wrap;html=1;aspect=fixed;fontSize=10;dashed=1;fontStyle=2;strokeColor=#b85450;fillColor=#f8cecc;gradientColor=#ea6b66;" vertex="1" parent="1">
          <mxGeometry x="1776" y="1142.72" width="38" height="38" as="geometry" />
        </mxCell>
        <mxCell id="d1TsrUusoKjAXNjvLQ9p-203" value="(3|3)" style="whiteSpace=wrap;html=1;aspect=fixed;fontSize=10;fontStyle=0;strokeColor=#d6b656;fillColor=#fff2cc;gradientColor=#ffd966;" vertex="1" parent="1">
          <mxGeometry x="1814" y="1142.72" width="38" height="38" as="geometry" />
        </mxCell>
        <mxCell id="d1TsrUusoKjAXNjvLQ9p-204" value="(4|3)" style="whiteSpace=wrap;html=1;aspect=fixed;fontSize=10;fontStyle=0;strokeColor=#d6b656;fillColor=#fff2cc;gradientColor=#ffd966;" vertex="1" parent="1">
          <mxGeometry x="1852" y="1142.72" width="38" height="38" as="geometry" />
        </mxCell>
        <mxCell id="d1TsrUusoKjAXNjvLQ9p-205" value="(5|3)" style="whiteSpace=wrap;html=1;aspect=fixed;fontSize=10;dashed=1;fontStyle=2;strokeColor=#B3B3B3;fontColor=#E6E6E6;" vertex="1" parent="1">
          <mxGeometry x="1890" y="1142.72" width="38" height="38" as="geometry" />
        </mxCell>
        <mxCell id="d1TsrUusoKjAXNjvLQ9p-206" value="(0|4)" style="whiteSpace=wrap;html=1;aspect=fixed;fontSize=10;dashed=1;fontStyle=2;strokeColor=#B3B3B3;fontColor=#E6E6E6;" vertex="1" parent="1">
          <mxGeometry x="1700" y="1104.72" width="38" height="38" as="geometry" />
        </mxCell>
        <mxCell id="d1TsrUusoKjAXNjvLQ9p-207" value="(1|4)" style="whiteSpace=wrap;html=1;aspect=fixed;fontSize=10;dashed=1;fontStyle=2;strokeColor=#B3B3B3;fontColor=#E6E6E6;" vertex="1" parent="1">
          <mxGeometry x="1738" y="1104.72" width="38" height="38" as="geometry" />
        </mxCell>
        <mxCell id="d1TsrUusoKjAXNjvLQ9p-208" value="(2|4)" style="whiteSpace=wrap;html=1;aspect=fixed;fontSize=10;dashed=1;fontStyle=2;strokeColor=#B3B3B3;fontColor=#E6E6E6;" vertex="1" parent="1">
          <mxGeometry x="1776" y="1104.72" width="38" height="38" as="geometry" />
        </mxCell>
        <mxCell id="d1TsrUusoKjAXNjvLQ9p-209" value="(3|4)" style="whiteSpace=wrap;html=1;aspect=fixed;fontSize=10;dashed=1;fontStyle=2;strokeColor=#B3B3B3;fontColor=#E6E6E6;" vertex="1" parent="1">
          <mxGeometry x="1814" y="1104.72" width="38" height="38" as="geometry" />
        </mxCell>
        <mxCell id="d1TsrUusoKjAXNjvLQ9p-210" value="(4|4)" style="whiteSpace=wrap;html=1;aspect=fixed;fontSize=10;dashed=1;fontStyle=2;strokeColor=#B3B3B3;fontColor=#E6E6E6;" vertex="1" parent="1">
          <mxGeometry x="1852" y="1104.72" width="38" height="38" as="geometry" />
        </mxCell>
        <mxCell id="d1TsrUusoKjAXNjvLQ9p-211" value="(5|4)" style="whiteSpace=wrap;html=1;aspect=fixed;fontSize=10;dashed=1;fontStyle=2;strokeColor=#B3B3B3;fontColor=#E6E6E6;" vertex="1" parent="1">
          <mxGeometry x="1890" y="1104.72" width="38" height="38" as="geometry" />
        </mxCell>
        <mxCell id="d1TsrUusoKjAXNjvLQ9p-212" value="(0|5)" style="whiteSpace=wrap;html=1;aspect=fixed;fontSize=10;dashed=1;fontStyle=2;strokeColor=#B3B3B3;fontColor=#E6E6E6;" vertex="1" parent="1">
          <mxGeometry x="1700" y="1066.72" width="38" height="38" as="geometry" />
        </mxCell>
        <mxCell id="d1TsrUusoKjAXNjvLQ9p-213" value="(1|5)" style="whiteSpace=wrap;html=1;aspect=fixed;fontSize=10;dashed=1;fontStyle=2;strokeColor=#B3B3B3;fontColor=#E6E6E6;" vertex="1" parent="1">
          <mxGeometry x="1738" y="1066.72" width="38" height="38" as="geometry" />
        </mxCell>
        <mxCell id="d1TsrUusoKjAXNjvLQ9p-214" value="(2|5)" style="whiteSpace=wrap;html=1;aspect=fixed;fontSize=10;dashed=1;fontStyle=2;strokeColor=#B3B3B3;fontColor=#E6E6E6;" vertex="1" parent="1">
          <mxGeometry x="1776" y="1066.72" width="38" height="38" as="geometry" />
        </mxCell>
        <mxCell id="d1TsrUusoKjAXNjvLQ9p-215" value="(3|5)" style="whiteSpace=wrap;html=1;aspect=fixed;fontSize=10;dashed=1;fontStyle=2;strokeColor=#B3B3B3;fontColor=#E6E6E6;" vertex="1" parent="1">
          <mxGeometry x="1814" y="1066.72" width="38" height="38" as="geometry" />
        </mxCell>
        <mxCell id="d1TsrUusoKjAXNjvLQ9p-216" value="(4|5)" style="whiteSpace=wrap;html=1;aspect=fixed;fontSize=10;dashed=1;fontStyle=2;strokeColor=#B3B3B3;fontColor=#E6E6E6;" vertex="1" parent="1">
          <mxGeometry x="1852" y="1066.72" width="38" height="38" as="geometry" />
        </mxCell>
        <mxCell id="d1TsrUusoKjAXNjvLQ9p-217" value="(5|5)" style="whiteSpace=wrap;html=1;aspect=fixed;fontSize=10;dashed=1;fontStyle=2;strokeColor=#B3B3B3;fontColor=#E6E6E6;" vertex="1" parent="1">
          <mxGeometry x="1890" y="1066.72" width="38" height="38" as="geometry" />
        </mxCell>
        <mxCell id="d1TsrUusoKjAXNjvLQ9p-218" value="addTile(L-Tile, 90°, (2|3),RED)" style="text;html=1;strokeColor=none;fillColor=none;align=left;verticalAlign=middle;whiteSpace=wrap;rounded=0;fontSize=10;fontFamily=Lucida Console;" vertex="1" parent="1">
          <mxGeometry x="1700" y="1040" width="220" height="20" as="geometry" />
        </mxCell>
        <mxCell id="d1TsrUusoKjAXNjvLQ9p-219" value="&lt;span style=&quot;color: rgb(0, 0, 0); font-family: Helvetica; font-size: 10px; font-style: normal; font-variant-ligatures: normal; font-variant-caps: normal; font-weight: 400; letter-spacing: normal; orphans: 2; text-align: left; text-indent: 0px; text-transform: none; widows: 2; word-spacing: 0px; -webkit-text-stroke-width: 0px; background-color: rgb(248, 249, 250); text-decoration-thickness: initial; text-decoration-style: initial; text-decoration-color: initial; float: none; display: inline !important;&quot;&gt;(0 + 2| (-1 * 0) + 3) = &lt;/span&gt;&lt;span style=&quot;color: rgb(0, 0, 0); font-family: Helvetica; font-size: 10px; font-style: normal; font-variant-ligatures: normal; font-variant-caps: normal; letter-spacing: normal; orphans: 2; text-align: left; text-indent: 0px; text-transform: none; widows: 2; word-spacing: 0px; -webkit-text-stroke-width: 0px; background-color: rgb(248, 249, 250); text-decoration-thickness: initial; text-decoration-style: initial; text-decoration-color: initial; float: none; display: inline !important;&quot;&gt;&lt;b&gt;(2|3)&lt;/b&gt;&lt;/span&gt;" style="text;whiteSpace=wrap;html=1;fontSize=7;fontFamily=Helvetica;fontColor=#E6E6E6;" vertex="1" parent="1">
          <mxGeometry x="2008" y="1396.72" width="120" height="20" as="geometry" />
        </mxCell>
        <mxCell id="d1TsrUusoKjAXNjvLQ9p-220" value="&lt;font style=&quot;&quot;&gt;(0|0)&lt;br&gt;&lt;font style=&quot;font-size: 6px;&quot;&gt;anchor&lt;/font&gt;&lt;br&gt;&lt;/font&gt;" style="whiteSpace=wrap;html=1;aspect=fixed;fontSize=12;horizontal=1;verticalAlign=middle;fillColor=#f8cecc;strokeColor=#b85450;gradientColor=#ea6b66;" vertex="1" parent="1">
          <mxGeometry x="2102" y="1318.72" width="38" height="38" as="geometry" />
        </mxCell>
        <mxCell id="d1TsrUusoKjAXNjvLQ9p-221" value="&lt;span style=&quot;font-size: 12px;&quot;&gt;(1|0)&lt;/span&gt;" style="whiteSpace=wrap;html=1;aspect=fixed;fontSize=12;fillColor=#fff2cc;strokeColor=#d6b656;gradientColor=#ffd966;" vertex="1" parent="1">
          <mxGeometry x="2140" y="1318.72" width="38" height="38" as="geometry" />
        </mxCell>
        <mxCell id="d1TsrUusoKjAXNjvLQ9p-222" value="(1|2)" style="whiteSpace=wrap;html=1;aspect=fixed;fontSize=10;dashed=1;fontStyle=2;strokeColor=#B3B3B3;fontColor=#E6E6E6;" vertex="1" parent="1">
          <mxGeometry x="2140" y="1242.72" width="38" height="38" as="geometry" />
        </mxCell>
        <mxCell id="d1TsrUusoKjAXNjvLQ9p-223" value="(1|1)" style="whiteSpace=wrap;html=1;aspect=fixed;fontSize=10;dashed=1;fontStyle=2;strokeColor=#B3B3B3;fontColor=#E6E6E6;" vertex="1" parent="1">
          <mxGeometry x="2140" y="1280.72" width="38" height="38" as="geometry" />
        </mxCell>
        <mxCell id="d1TsrUusoKjAXNjvLQ9p-224" value="(0|3)" style="whiteSpace=wrap;html=1;aspect=fixed;fontSize=10;dashed=1;fontStyle=2;strokeColor=#B3B3B3;fontColor=#E6E6E6;" vertex="1" parent="1">
          <mxGeometry x="2102" y="1204.72" width="38" height="38" as="geometry" />
        </mxCell>
        <mxCell id="d1TsrUusoKjAXNjvLQ9p-225" value="(1|3)" style="whiteSpace=wrap;html=1;aspect=fixed;fontSize=10;dashed=1;fontStyle=2;strokeColor=#B3B3B3;fontColor=#E6E6E6;" vertex="1" parent="1">
          <mxGeometry x="2140" y="1204.72" width="38" height="38" as="geometry" />
        </mxCell>
        <mxCell id="d1TsrUusoKjAXNjvLQ9p-226" value="(0|2)" style="whiteSpace=wrap;html=1;aspect=fixed;fontSize=12;" vertex="1" parent="1">
          <mxGeometry x="2102" y="1242.72" width="38" height="38" as="geometry" />
        </mxCell>
        <mxCell id="d1TsrUusoKjAXNjvLQ9p-227" value="(0|1)" style="whiteSpace=wrap;html=1;aspect=fixed;fontSize=12;fillColor=#fff2cc;strokeColor=#d6b656;gradientColor=#ffd966;" vertex="1" parent="1">
          <mxGeometry x="2102" y="1280.72" width="38" height="38" as="geometry" />
        </mxCell>
        <mxCell id="d1TsrUusoKjAXNjvLQ9p-228" value="(0|2)" style="whiteSpace=wrap;html=1;aspect=fixed;fontSize=12;fillColor=#fff2cc;strokeColor=#d6b656;gradientColor=#ffd966;" vertex="1" parent="1">
          <mxGeometry x="2102" y="1242.72" width="38" height="38" as="geometry" />
        </mxCell>
        <mxCell id="d1TsrUusoKjAXNjvLQ9p-229" value="0°" style="text;html=1;strokeColor=none;fillColor=none;align=center;verticalAlign=middle;whiteSpace=wrap;rounded=0;fontSize=12;" vertex="1" parent="1">
          <mxGeometry x="2122" y="1180.72" width="40" height="20" as="geometry" />
        </mxCell>
        <mxCell id="d1TsrUusoKjAXNjvLQ9p-230" value="" style="endArrow=none;dashed=1;html=1;dashPattern=1 3;strokeWidth=1;rounded=0;fontSize=1;fontColor=#E6E6E6;elbow=vertical;jumpStyle=gap;jumpSize=15;entryX=0.421;entryY=0.474;entryDx=0;entryDy=0;entryPerimeter=0;exitX=0.5;exitY=0;exitDx=0;exitDy=0;" edge="1" parent="1" source="d1TsrUusoKjAXNjvLQ9p-219" target="d1TsrUusoKjAXNjvLQ9p-220">
          <mxGeometry width="50" height="50" relative="1" as="geometry">
            <mxPoint x="2108.01" y="1446.72" as="sourcePoint" />
            <mxPoint x="2218.004" y="1436.716" as="targetPoint" />
          </mxGeometry>
        </mxCell>
        <mxCell id="d1TsrUusoKjAXNjvLQ9p-231" value="&lt;span style=&quot;color: rgb(0, 0, 0); font-family: Helvetica; font-size: 10px; font-style: normal; font-variant-ligatures: normal; font-variant-caps: normal; font-weight: 400; letter-spacing: normal; orphans: 2; text-align: left; text-indent: 0px; text-transform: none; widows: 2; word-spacing: 0px; -webkit-text-stroke-width: 0px; background-color: rgb(248, 249, 250); text-decoration-thickness: initial; text-decoration-style: initial; text-decoration-color: initial; float: none; display: inline !important;&quot;&gt;(0 + 2| (-1 * cT) + 3) = &lt;/span&gt;&lt;span style=&quot;color: rgb(0, 0, 0); font-family: Helvetica; font-size: 10px; font-style: normal; font-variant-ligatures: normal; font-variant-caps: normal; letter-spacing: normal; orphans: 2; text-align: left; text-indent: 0px; text-transform: none; widows: 2; word-spacing: 0px; -webkit-text-stroke-width: 0px; background-color: rgb(248, 249, 250); text-decoration-thickness: initial; text-decoration-style: initial; text-decoration-color: initial; float: none; display: inline !important;&quot;&gt;&lt;b&gt;(2|2)&lt;/b&gt;&lt;/span&gt;" style="text;whiteSpace=wrap;html=1;fontSize=7;fontFamily=Helvetica;fontColor=#E6E6E6;" vertex="1" parent="1">
          <mxGeometry x="2148" y="1396.72" width="130" height="20" as="geometry" />
        </mxCell>
        <mxCell id="d1TsrUusoKjAXNjvLQ9p-232" value="&lt;span style=&quot;color: rgb(0, 0, 0); font-family: Helvetica; font-size: 10px; font-style: normal; font-variant-ligatures: normal; font-variant-caps: normal; font-weight: 400; letter-spacing: normal; orphans: 2; text-align: left; text-indent: 0px; text-transform: none; widows: 2; word-spacing: 0px; -webkit-text-stroke-width: 0px; background-color: rgb(248, 249, 250); text-decoration-thickness: initial; text-decoration-style: initial; text-decoration-color: initial; float: none; display: inline !important;&quot;&gt;(2 + 2 | (-1 * 0) + 3) = &lt;/span&gt;&lt;span style=&quot;color: rgb(0, 0, 0); font-family: Helvetica; font-size: 10px; font-style: normal; font-variant-ligatures: normal; font-variant-caps: normal; letter-spacing: normal; orphans: 2; text-align: left; text-indent: 0px; text-transform: none; widows: 2; word-spacing: 0px; -webkit-text-stroke-width: 0px; background-color: rgb(248, 249, 250); text-decoration-thickness: initial; text-decoration-style: initial; text-decoration-color: initial; float: none; display: inline !important;&quot;&gt;&lt;b&gt;(4|3)&lt;/b&gt;&lt;/span&gt;" style="text;whiteSpace=wrap;html=1;fontSize=7;fontFamily=Helvetica;fontColor=#E6E6E6;" vertex="1" parent="1">
          <mxGeometry x="1948" y="1213.72" width="132" height="20" as="geometry" />
        </mxCell>
        <mxCell id="d1TsrUusoKjAXNjvLQ9p-233" value="&lt;span style=&quot;color: rgb(0, 0, 0); font-family: Helvetica; font-size: 10px; font-style: normal; font-variant-ligatures: normal; font-variant-caps: normal; font-weight: 400; letter-spacing: normal; orphans: 2; text-align: left; text-indent: 0px; text-transform: none; widows: 2; word-spacing: 0px; -webkit-text-stroke-width: 0px; background-color: rgb(248, 249, 250); text-decoration-thickness: initial; text-decoration-style: initial; text-decoration-color: initial; float: none; display: inline !important;&quot;&gt;(1 + 2 | (-1 * 0) + 3) = &lt;/span&gt;&lt;span style=&quot;color: rgb(0, 0, 0); font-family: Helvetica; font-size: 10px; font-style: normal; font-variant-ligatures: normal; font-variant-caps: normal; letter-spacing: normal; orphans: 2; text-align: left; text-indent: 0px; text-transform: none; widows: 2; word-spacing: 0px; -webkit-text-stroke-width: 0px; background-color: rgb(248, 249, 250); text-decoration-thickness: initial; text-decoration-style: initial; text-decoration-color: initial; float: none; display: inline !important;&quot;&gt;&lt;b&gt;(3|3)&lt;/b&gt;&lt;/span&gt;" style="text;whiteSpace=wrap;html=1;fontSize=7;fontFamily=Helvetica;fontColor=#E6E6E6;" vertex="1" parent="1">
          <mxGeometry x="1948" y="1296.72" width="130" height="20" as="geometry" />
        </mxCell>
        <mxCell id="d1TsrUusoKjAXNjvLQ9p-234" value="" style="endArrow=none;dashed=1;html=1;dashPattern=1 3;strokeWidth=1;rounded=0;fontSize=1;fontColor=#E6E6E6;elbow=vertical;jumpStyle=gap;jumpSize=15;entryX=0.421;entryY=0.158;entryDx=0;entryDy=0;entryPerimeter=0;exitX=1;exitY=0.5;exitDx=0;exitDy=0;" edge="1" parent="1" source="d1TsrUusoKjAXNjvLQ9p-233" target="d1TsrUusoKjAXNjvLQ9p-227">
          <mxGeometry width="50" height="50" relative="1" as="geometry">
            <mxPoint x="2095" y="1406.72" as="sourcePoint" />
            <mxPoint x="2127.998" y="1346.732" as="targetPoint" />
          </mxGeometry>
        </mxCell>
        <mxCell id="d1TsrUusoKjAXNjvLQ9p-235" value="" style="endArrow=none;dashed=1;html=1;dashPattern=1 3;strokeWidth=1;rounded=0;fontSize=1;fontColor=#E6E6E6;elbow=vertical;jumpStyle=gap;jumpSize=15;entryX=0.421;entryY=0.105;entryDx=0;entryDy=0;entryPerimeter=0;exitX=1;exitY=0.5;exitDx=0;exitDy=0;" edge="1" parent="1" source="d1TsrUusoKjAXNjvLQ9p-232" target="d1TsrUusoKjAXNjvLQ9p-228">
          <mxGeometry width="50" height="50" relative="1" as="geometry">
            <mxPoint x="2088" y="1316.72" as="sourcePoint" />
            <mxPoint x="2127.998" y="1296.724" as="targetPoint" />
          </mxGeometry>
        </mxCell>
        <mxCell id="d1TsrUusoKjAXNjvLQ9p-236" value="" style="endArrow=none;dashed=1;html=1;dashPattern=1 3;strokeWidth=1;rounded=0;fontSize=1;fontColor=#E6E6E6;elbow=vertical;jumpStyle=gap;jumpSize=15;entryX=0.5;entryY=0.737;entryDx=0;entryDy=0;entryPerimeter=0;exitX=0.5;exitY=0;exitDx=0;exitDy=0;" edge="1" parent="1" source="d1TsrUusoKjAXNjvLQ9p-231" target="d1TsrUusoKjAXNjvLQ9p-221">
          <mxGeometry width="50" height="50" relative="1" as="geometry">
            <mxPoint x="2098" y="1326.72" as="sourcePoint" />
            <mxPoint x="2137.998" y="1306.724" as="targetPoint" />
          </mxGeometry>
        </mxCell>
        <mxCell id="d1TsrUusoKjAXNjvLQ9p-239" value="(0|0)" style="whiteSpace=wrap;html=1;aspect=fixed;fontSize=10;dashed=1;fontStyle=2;strokeColor=#B3B3B3;fontColor=#E6E6E6;" vertex="1" parent="1">
          <mxGeometry x="1700" y="1606.7199999999998" width="38" height="38" as="geometry" />
        </mxCell>
        <mxCell id="d1TsrUusoKjAXNjvLQ9p-240" value="(1|0)" style="whiteSpace=wrap;html=1;aspect=fixed;fontSize=10;dashed=1;fontStyle=2;strokeColor=#B3B3B3;fontColor=#E6E6E6;" vertex="1" parent="1">
          <mxGeometry x="1738" y="1606.7199999999998" width="38" height="38" as="geometry" />
        </mxCell>
        <mxCell id="d1TsrUusoKjAXNjvLQ9p-241" value="(2|0)" style="whiteSpace=wrap;html=1;aspect=fixed;fontSize=10;dashed=1;fontStyle=2;strokeColor=#B3B3B3;fontColor=#E6E6E6;" vertex="1" parent="1">
          <mxGeometry x="1776" y="1606.7199999999998" width="38" height="38" as="geometry" />
        </mxCell>
        <mxCell id="d1TsrUusoKjAXNjvLQ9p-242" value="(3|0)" style="whiteSpace=wrap;html=1;aspect=fixed;fontSize=10;dashed=1;fontStyle=2;strokeColor=#B3B3B3;fontColor=#E6E6E6;" vertex="1" parent="1">
          <mxGeometry x="1814" y="1606.7199999999998" width="38" height="38" as="geometry" />
        </mxCell>
        <mxCell id="d1TsrUusoKjAXNjvLQ9p-243" value="(4|0)" style="whiteSpace=wrap;html=1;aspect=fixed;fontSize=10;dashed=1;fontStyle=2;strokeColor=#B3B3B3;fontColor=#E6E6E6;" vertex="1" parent="1">
          <mxGeometry x="1852" y="1606.7199999999998" width="38" height="38" as="geometry" />
        </mxCell>
        <mxCell id="d1TsrUusoKjAXNjvLQ9p-244" value="(5|0)" style="whiteSpace=wrap;html=1;aspect=fixed;fontSize=10;dashed=1;fontStyle=2;strokeColor=#B3B3B3;fontColor=#E6E6E6;" vertex="1" parent="1">
          <mxGeometry x="1890" y="1606.7199999999998" width="38" height="38" as="geometry" />
        </mxCell>
        <mxCell id="d1TsrUusoKjAXNjvLQ9p-245" value="(0|1)" style="whiteSpace=wrap;html=1;aspect=fixed;fontSize=10;dashed=1;fontStyle=2;strokeColor=#B3B3B3;fontColor=#E6E6E6;" vertex="1" parent="1">
          <mxGeometry x="1700" y="1568.7199999999998" width="38" height="38" as="geometry" />
        </mxCell>
        <mxCell id="d1TsrUusoKjAXNjvLQ9p-246" value="(1|1)" style="whiteSpace=wrap;html=1;aspect=fixed;fontSize=10;dashed=1;fontStyle=2;strokeColor=#B3B3B3;fontColor=#E6E6E6;" vertex="1" parent="1">
          <mxGeometry x="1738" y="1568.7199999999998" width="38" height="38" as="geometry" />
        </mxCell>
        <mxCell id="d1TsrUusoKjAXNjvLQ9p-247" value="(2|1)" style="whiteSpace=wrap;html=1;aspect=fixed;fontSize=10;dashed=1;fontStyle=2;strokeColor=#B3B3B3;fontColor=#E6E6E6;" vertex="1" parent="1">
          <mxGeometry x="1776" y="1568.7199999999998" width="38" height="38" as="geometry" />
        </mxCell>
        <mxCell id="d1TsrUusoKjAXNjvLQ9p-248" value="(3|1)" style="whiteSpace=wrap;html=1;aspect=fixed;fontSize=10;dashed=1;fontStyle=2;strokeColor=#B3B3B3;fontColor=#E6E6E6;" vertex="1" parent="1">
          <mxGeometry x="1814" y="1568.7199999999998" width="38" height="38" as="geometry" />
        </mxCell>
        <mxCell id="d1TsrUusoKjAXNjvLQ9p-249" value="(4|1)" style="whiteSpace=wrap;html=1;aspect=fixed;fontSize=10;dashed=1;fontStyle=2;strokeColor=#B3B3B3;fontColor=#E6E6E6;" vertex="1" parent="1">
          <mxGeometry x="1852" y="1568.7199999999998" width="38" height="38" as="geometry" />
        </mxCell>
        <mxCell id="d1TsrUusoKjAXNjvLQ9p-250" value="(5|1)" style="whiteSpace=wrap;html=1;aspect=fixed;fontSize=10;dashed=1;fontStyle=2;strokeColor=#B3B3B3;fontColor=#E6E6E6;" vertex="1" parent="1">
          <mxGeometry x="1890" y="1568.7199999999998" width="38" height="38" as="geometry" />
        </mxCell>
        <mxCell id="d1TsrUusoKjAXNjvLQ9p-251" value="(0|2)" style="whiteSpace=wrap;html=1;aspect=fixed;fontSize=10;dashed=1;fontStyle=2;strokeColor=#B3B3B3;fontColor=#E6E6E6;" vertex="1" parent="1">
          <mxGeometry x="1700" y="1530.7199999999998" width="38" height="38" as="geometry" />
        </mxCell>
        <mxCell id="d1TsrUusoKjAXNjvLQ9p-252" value="(1|2)" style="whiteSpace=wrap;html=1;aspect=fixed;fontSize=10;dashed=1;fontStyle=2;strokeColor=#B3B3B3;fontColor=#E6E6E6;" vertex="1" parent="1">
          <mxGeometry x="1738" y="1530.7199999999998" width="38" height="38" as="geometry" />
        </mxCell>
        <mxCell id="d1TsrUusoKjAXNjvLQ9p-253" value="(2|2)" style="whiteSpace=wrap;html=1;aspect=fixed;fontSize=10;dashed=1;fontStyle=2;strokeColor=#B3B3B3;fontColor=#E6E6E6;" vertex="1" parent="1">
          <mxGeometry x="1776" y="1530.7199999999998" width="38" height="38" as="geometry" />
        </mxCell>
        <mxCell id="d1TsrUusoKjAXNjvLQ9p-254" value="(3|2)" style="whiteSpace=wrap;html=1;aspect=fixed;fontSize=10;dashed=1;fontStyle=2;strokeColor=#B3B3B3;fontColor=#E6E6E6;" vertex="1" parent="1">
          <mxGeometry x="1814" y="1530.7199999999998" width="38" height="38" as="geometry" />
        </mxCell>
        <mxCell id="d1TsrUusoKjAXNjvLQ9p-255" value="(4|2)" style="whiteSpace=wrap;html=1;aspect=fixed;fontSize=10;dashed=1;fontStyle=2;strokeColor=#B3B3B3;fontColor=#E6E6E6;" vertex="1" parent="1">
          <mxGeometry x="1852" y="1530.7199999999998" width="38" height="38" as="geometry" />
        </mxCell>
        <mxCell id="d1TsrUusoKjAXNjvLQ9p-256" value="(5|2)" style="whiteSpace=wrap;html=1;aspect=fixed;fontSize=10;dashed=1;fontStyle=2;strokeColor=#B3B3B3;fontColor=#E6E6E6;" vertex="1" parent="1">
          <mxGeometry x="1890" y="1530.7199999999998" width="38" height="38" as="geometry" />
        </mxCell>
        <mxCell id="d1TsrUusoKjAXNjvLQ9p-257" value="(0|3)" style="whiteSpace=wrap;html=1;aspect=fixed;fontSize=10;dashed=1;fontStyle=2;strokeColor=#B3B3B3;fontColor=#E6E6E6;" vertex="1" parent="1">
          <mxGeometry x="1700" y="1492.7199999999998" width="38" height="38" as="geometry" />
        </mxCell>
        <mxCell id="d1TsrUusoKjAXNjvLQ9p-258" value="(1|3)" style="whiteSpace=wrap;html=1;aspect=fixed;fontSize=10;dashed=1;fontStyle=2;strokeColor=#B3B3B3;fontColor=#E6E6E6;" vertex="1" parent="1">
          <mxGeometry x="1738" y="1492.7199999999998" width="38" height="38" as="geometry" />
        </mxCell>
        <mxCell id="d1TsrUusoKjAXNjvLQ9p-259" value="(2|3)" style="whiteSpace=wrap;html=1;aspect=fixed;fontSize=10;dashed=1;fontStyle=2;strokeColor=#B3B3B3;fontColor=#E6E6E6;" vertex="1" parent="1">
          <mxGeometry x="1776" y="1492.7199999999998" width="38" height="38" as="geometry" />
        </mxCell>
        <mxCell id="d1TsrUusoKjAXNjvLQ9p-260" value="(3|3)" style="whiteSpace=wrap;html=1;aspect=fixed;fontSize=10;dashed=1;fontStyle=2;strokeColor=#B3B3B3;fontColor=#E6E6E6;" vertex="1" parent="1">
          <mxGeometry x="1814" y="1492.7199999999998" width="38" height="38" as="geometry" />
        </mxCell>
        <mxCell id="d1TsrUusoKjAXNjvLQ9p-261" value="(4|3)" style="whiteSpace=wrap;html=1;aspect=fixed;fontSize=10;dashed=1;fontStyle=2;strokeColor=#B3B3B3;fontColor=#E6E6E6;" vertex="1" parent="1">
          <mxGeometry x="1852" y="1492.7199999999998" width="38" height="38" as="geometry" />
        </mxCell>
        <mxCell id="d1TsrUusoKjAXNjvLQ9p-262" value="(5|3)" style="whiteSpace=wrap;html=1;aspect=fixed;fontSize=10;dashed=1;fontStyle=2;strokeColor=#B3B3B3;fontColor=#E6E6E6;" vertex="1" parent="1">
          <mxGeometry x="1890" y="1492.7199999999998" width="38" height="38" as="geometry" />
        </mxCell>
        <mxCell id="d1TsrUusoKjAXNjvLQ9p-263" value="(0|4)" style="whiteSpace=wrap;html=1;aspect=fixed;fontSize=10;dashed=1;fontStyle=2;strokeColor=#B3B3B3;fontColor=#E6E6E6;" vertex="1" parent="1">
          <mxGeometry x="1700" y="1454.7199999999998" width="38" height="38" as="geometry" />
        </mxCell>
        <mxCell id="d1TsrUusoKjAXNjvLQ9p-264" value="(1|4)" style="whiteSpace=wrap;html=1;aspect=fixed;fontSize=10;dashed=1;fontStyle=2;strokeColor=#B3B3B3;fontColor=#E6E6E6;" vertex="1" parent="1">
          <mxGeometry x="1738" y="1454.7199999999998" width="38" height="38" as="geometry" />
        </mxCell>
        <mxCell id="d1TsrUusoKjAXNjvLQ9p-265" value="(2|4)" style="whiteSpace=wrap;html=1;aspect=fixed;fontSize=10;dashed=1;fontStyle=2;strokeColor=#B3B3B3;fontColor=#E6E6E6;" vertex="1" parent="1">
          <mxGeometry x="1776" y="1454.7199999999998" width="38" height="38" as="geometry" />
        </mxCell>
        <mxCell id="d1TsrUusoKjAXNjvLQ9p-266" value="(3|4)" style="whiteSpace=wrap;html=1;aspect=fixed;fontSize=10;dashed=1;fontStyle=2;strokeColor=#B3B3B3;fontColor=#E6E6E6;" vertex="1" parent="1">
          <mxGeometry x="1814" y="1454.7199999999998" width="38" height="38" as="geometry" />
        </mxCell>
        <mxCell id="d1TsrUusoKjAXNjvLQ9p-267" value="(4|4)" style="whiteSpace=wrap;html=1;aspect=fixed;fontSize=10;dashed=1;fontStyle=2;strokeColor=#B3B3B3;fontColor=#E6E6E6;" vertex="1" parent="1">
          <mxGeometry x="1852" y="1454.7199999999998" width="38" height="38" as="geometry" />
        </mxCell>
        <mxCell id="d1TsrUusoKjAXNjvLQ9p-268" value="(5|4)" style="whiteSpace=wrap;html=1;aspect=fixed;fontSize=10;dashed=1;fontStyle=2;strokeColor=#B3B3B3;fontColor=#E6E6E6;" vertex="1" parent="1">
          <mxGeometry x="1890" y="1454.7199999999998" width="38" height="38" as="geometry" />
        </mxCell>
        <mxCell id="d1TsrUusoKjAXNjvLQ9p-269" value="(0|5)" style="whiteSpace=wrap;html=1;aspect=fixed;fontSize=10;dashed=1;fontStyle=2;strokeColor=#B3B3B3;fontColor=#E6E6E6;" vertex="1" parent="1">
          <mxGeometry x="1700" y="1416.7199999999998" width="38" height="38" as="geometry" />
        </mxCell>
        <mxCell id="d1TsrUusoKjAXNjvLQ9p-270" value="(1|5)" style="whiteSpace=wrap;html=1;aspect=fixed;fontSize=10;dashed=1;fontStyle=2;strokeColor=#B3B3B3;fontColor=#E6E6E6;" vertex="1" parent="1">
          <mxGeometry x="1738" y="1416.7199999999998" width="38" height="38" as="geometry" />
        </mxCell>
        <mxCell id="d1TsrUusoKjAXNjvLQ9p-271" value="(2|5)" style="whiteSpace=wrap;html=1;aspect=fixed;fontSize=10;dashed=1;fontStyle=2;strokeColor=#B3B3B3;fontColor=#E6E6E6;" vertex="1" parent="1">
          <mxGeometry x="1776" y="1416.7199999999998" width="38" height="38" as="geometry" />
        </mxCell>
        <mxCell id="d1TsrUusoKjAXNjvLQ9p-272" value="(3|5)" style="whiteSpace=wrap;html=1;aspect=fixed;fontSize=10;dashed=1;fontStyle=2;strokeColor=#B3B3B3;fontColor=#E6E6E6;" vertex="1" parent="1">
          <mxGeometry x="1814" y="1416.7199999999998" width="38" height="38" as="geometry" />
        </mxCell>
        <mxCell id="d1TsrUusoKjAXNjvLQ9p-273" value="(4|5)" style="whiteSpace=wrap;html=1;aspect=fixed;fontSize=10;dashed=1;fontStyle=2;strokeColor=#B3B3B3;fontColor=#E6E6E6;" vertex="1" parent="1">
          <mxGeometry x="1852" y="1416.7199999999998" width="38" height="38" as="geometry" />
        </mxCell>
        <mxCell id="d1TsrUusoKjAXNjvLQ9p-274" value="(5|5)" style="whiteSpace=wrap;html=1;aspect=fixed;fontSize=10;dashed=1;fontStyle=2;strokeColor=#B3B3B3;fontColor=#E6E6E6;" vertex="1" parent="1">
          <mxGeometry x="1890" y="1416.7199999999998" width="38" height="38" as="geometry" />
        </mxCell>
      </root>
    </mxGraphModel>
  </diagram>
</mxfile>
